<svg width="162" height="162" viewBox="0 0 162 162" fill="none" xmlns="http://www.w3.org/2000/svg">
<circle cx="81" cy="81" r="79" stroke="#012C46" stroke-width="4"/>
<circle cx="81" cy="81" r="73.5" stroke="#012C46"/>
<path fill-rule="evenodd" clip-rule="evenodd" d="M96.8853 52.64C96.8853 56.0444 99.6549 58.811 103.062 58.811C106.47 58.811 109.239 56.0444 109.239 52.64C109.239 49.2357 106.47 46.469 103.062 46.469C99.6549 46.469 96.8853 49.2357 96.8853 52.64ZM94.4132 52.64C94.4132 47.8782 98.2944 44.0001 103.062 44.0001C107.83 44.0001 111.708 47.8782 111.708 52.64C111.708 57.4019 107.83 61.28 103.062 61.28C98.2944 61.28 94.4132 57.4019 94.4132 52.64ZM78.9737 80.0996H80.8262C81.6796 80.0996 82.3689 79.4102 82.3689 78.5569V77.6336C82.3689 76.7803 81.6796 76.0909 80.8262 76.0909H78.9737C76.7567 76.0909 74.9589 74.29 74.9589 72.0792V71.1529C74.9589 69.0453 76.5988 67.3355 78.6639 67.1746V64.9819H81.1359V67.1746C83.201 67.3355 84.841 69.0453 84.841 71.1529H82.3689C82.3689 70.2995 81.6796 69.6102 80.8262 69.6102H78.9737C78.1173 69.6102 77.4279 70.2995 77.4279 71.1529V72.0792C77.4279 72.9325 78.1173 73.6219 78.9737 73.6219H80.8262C83.0401 73.6219 84.841 75.4197 84.841 77.6336V78.5569C84.841 80.6645 83.201 82.3773 81.1359 82.5352V84.7278H78.6639V82.5352C76.5988 82.3773 74.9589 80.6645 74.9589 78.5569H77.4279C77.4279 79.4102 78.1173 80.0996 78.9737 80.0996ZM104.298 48.938H101.826V51.407H99.3573V53.873H101.826V56.342H104.298V53.873H106.767V51.407H104.298V48.938ZM49.941 74.8549V77.3238H47.472V74.8549H45V72.3859H47.472V69.9199H49.941V72.3859H52.413V74.8549H49.941ZM114.18 81.0259H111.708V83.4949H109.239V85.9639H111.708V88.4329H114.18V85.9639H116.649V83.4949H114.18V81.0259ZM54.882 83.4949H52.413V81.0259H54.882V83.4949ZM112.944 71.1529H110.475V73.6219H112.944V71.1529ZM101.826 85.9638H104.298V88.4328H101.826V85.9638ZM49.9409 64.982H52.413V62.513H49.9409V64.982ZM112.37 102.451C112.24 102.056 111.815 101.813 111.402 101.92L88.5369 107.629C88.2514 107.702 87.9477 107.671 87.6835 107.538L75.3294 101.367C74.9468 101.179 74.6917 100.802 74.6553 100.377C74.6158 99.9578 74.795 99.5448 75.1351 99.2836L82.4752 93.6775C83.2011 92.9152 83.1646 92.1196 82.8123 91.6944C82.3447 91.1174 81.3455 91.2146 80.2765 91.9252L74.1815 95.5816L69.3468 100.41C69.1129 100.644 68.8001 100.775 68.4721 100.775H62.2951V113.117H68.4721C68.5632 113.117 68.6513 113.126 68.7424 113.144L79.4991 115.534L111.86 103.484C112.288 103.335 112.516 102.87 112.37 102.451ZM53.6491 115.583H59.8261V98.3057H53.6491V115.583ZM79.9 56.3419C69.6778 56.3419 61.3689 64.6448 61.3689 74.8548C61.3689 82.9785 66.729 90.1668 74.4518 92.5386L78.9525 89.8449C81.4093 88.205 83.6353 88.7972 84.7256 90.1334C85.2358 90.756 85.5273 91.5881 85.5121 92.487C93.1104 90.0788 98.428 82.9937 98.428 74.8548C98.428 64.6448 90.1191 56.3419 79.9 56.3419ZM87.3464 103.918C87.2341 103.951 87.1187 103.963 87.0033 103.963H86.0557L88.382 105.127L107.193 100.432V100.425C107.684 100.316 108.003 99.9092 108.003 99.4051C108.003 99.0558 107.845 98.7339 107.569 98.5274C107.29 98.3209 106.937 98.251 106.603 98.3482L87.3464 103.918ZM100.344 94.1057C100.177 94.0905 99.8584 94.0996 99.5821 94.382L94.7473 99.2077L98.5252 98.1174L100.924 95.7213C101.243 95.4024 101.292 94.8953 101.04 94.5217C100.824 94.1968 100.508 94.1209 100.344 94.1057ZM105.923 95.9764C107.013 95.6636 108.152 95.8762 109.054 96.5595C109.959 97.2398 110.475 98.2723 110.475 99.4051C110.475 99.4515 110.469 99.4955 110.463 99.5387C110.46 99.5632 110.456 99.5874 110.454 99.6116L110.803 99.5235C112.452 99.1105 114.18 100.055 114.715 101.674C115.28 103.356 114.372 105.209 112.704 105.801L80.0184 117.976C79.8848 118.027 79.736 118.052 79.5902 118.052C79.4991 118.052 79.411 118.042 79.3199 118.024L68.3385 115.583H62.2951V118.052H51.177V95.8367H62.2951V98.3057H67.9619L71.9889 94.2788C64.181 91.1022 58.8968 83.4371 58.8968 74.8548C58.8968 63.2843 68.3173 53.8729 79.9 53.8729C91.4796 53.8729 100.9 63.2843 100.9 74.8548C100.9 84.7764 93.9274 93.3282 84.2609 95.369C84.2442 95.3857 84.2298 95.404 84.2154 95.4222C84.201 95.4404 84.1865 95.4586 84.1698 95.4753L84.1698 95.4754C84.1303 95.5148 84.0939 95.5513 84.0453 95.5816L78.2054 100.046L81.1147 101.497H86.8302L89.8306 100.629L97.8358 92.6358C98.5586 91.907 99.5729 91.5547 100.587 91.6458C101.614 91.7521 102.528 92.2987 103.096 93.1551C103.831 94.2545 103.834 95.6575 103.193 96.766L105.923 95.9764Z" fill="#012C46"/>
</svg>
