<svg width="162" height="162" viewBox="0 0 162 162" fill="none" xmlns="http://www.w3.org/2000/svg">
<circle cx="81" cy="81" r="79" stroke="#012C46" stroke-width="4"/>
<circle cx="81" cy="81" r="73.5" stroke="#012C46"/>
<path fill-rule="evenodd" clip-rule="evenodd" d="M81.5165 51.3384L82.9772 56.0122L88.4953 56.3644L90.943 56.5193L88.9447 57.9375L84.9451 60.777L86.3208 66.1341L86.9252 68.5059L84.9634 67.0452L81.0306 64.1207L76.3598 67.0816L74.2856 68.3966L75.0722 66.0734L76.6362 61.43L72.3785 57.9011L70.4895 56.3371L72.9373 56.3644L77.8418 56.4191L79.8796 51.2776L80.7846 49L81.5165 51.3384ZM53.1489 76.1892L51.6881 71.5124L50.9562 69.174L50.0512 71.4516L48.0135 76.5931L43.1089 76.5415L40.6612 76.5111L42.5501 78.0751L46.8078 81.604L45.2438 86.2474L44.4603 88.5706L46.5315 87.2556L51.2022 84.2977L55.135 87.2192L57.0999 88.6799L56.4925 86.3081L55.1198 80.951L61.1146 76.6964L58.6699 76.5415L53.1489 76.1892ZM92.5465 69.5627H69.6939H68.8253V112.939H92.5465V69.5627ZM62.7181 89.9493H39.8685H39V112.939H62.7181V89.9493ZM99.6771 79.8761H122.527V112.939H98.8056V79.8761H99.6771ZM112.957 66.1492L111.497 61.4754L110.765 59.137L109.863 61.4147L107.822 66.5561L102.918 66.5014L100.47 66.4741L102.356 68.0351L106.616 71.567L105.049 76.2104L104.269 78.5336L106.34 77.2186L111.011 74.2607L114.944 77.1822L116.905 78.6429L116.298 76.2711L114.928 70.9141L118.925 68.0746L120.923 66.6563L118.479 66.5014L112.957 66.1492Z" fill="#012C46"/>
</svg>
