<svg width="162" height="162" viewBox="0 0 162 162" fill="none" xmlns="http://www.w3.org/2000/svg">
<circle cx="81" cy="81" r="79" stroke="#012C46" stroke-width="4"/>
<circle cx="81" cy="81" r="73.5" stroke="#012C46"/>
<path fill-rule="evenodd" clip-rule="evenodd" d="M116.849 52.1549C116.849 52.1549 117.566 52.0851 117.897 52.4495C118.273 52.8656 118.243 53.8222 118.243 53.8222V95.1664H118.222C118.237 95.4671 118.243 95.7738 118.243 96.0805C118.243 106.843 87.7709 125.453 81.1383 125.453C74.0168 125.453 44.0275 106.843 44.0275 96.0805C44.0275 95.7738 44.0367 95.4671 44.0488 95.1664H44.0275V55.3072C44.0275 55.1831 44.0208 55.057 44.014 54.9293C43.9855 54.3919 43.9555 53.8283 44.4193 53.2786C45.0145 52.571 46.3811 52.7259 46.3811 52.7259H60.7608C61.4745 52.7623 62.1639 52.7623 62.8411 52.7259L67.8641 52.4981C71.4165 52.4133 72.9736 50.608 74.5413 48.7903C76.1726 46.8988 77.8156 44.9938 81.7305 45C84.6803 45.0052 85.9136 46.2423 87.3535 47.6867C89.3008 49.6401 91.6259 51.9725 99.0864 52.1489L99.3658 52.1549H116.849ZM109.142 59.2886C109.142 59.2886 109.703 59.2339 109.968 59.5194C110.259 59.8443 110.238 60.6005 110.238 60.6005V93.0224H110.22C110.232 93.2623 110.238 93.4991 110.238 93.7391C110.238 102.182 86.3375 116.78 81.1323 116.78C75.5535 116.78 52.0297 102.182 52.0297 93.7391C52.0297 93.4991 52.0358 93.2623 52.048 93.0224H52.0297V61.7606C52.0297 61.6639 52.0245 61.5656 52.0192 61.466C51.9968 61.0462 51.9732 60.6043 52.3365 60.1723C52.8072 59.6165 53.8731 59.738 53.8731 59.738H65.1521C65.7109 59.7654 66.2545 59.7654 66.783 59.738L70.7248 59.5588C73.511 59.4934 74.7318 58.077 75.9613 56.6507C77.2405 55.1666 78.5291 53.6717 81.5999 53.6764C83.9144 53.6816 84.8819 54.6524 86.0108 55.7852C87.5379 57.3176 89.3603 59.1463 95.2113 59.2825L95.4269 59.2886H109.142ZM91.0052 76.0765L91.0021 76.0067C90.9201 74.2756 90.6316 72.7359 90.1366 71.4331C89.6203 70.0817 88.8824 68.9429 87.9318 68.047C86.2494 66.4617 83.9565 65.6539 81.1231 65.6539C78.3444 65.6539 75.9543 66.5194 74.2172 68.1593C73.2394 69.0765 72.4923 70.2184 71.9942 71.5485C71.4931 72.8665 71.2411 74.3819 71.2411 76.0492V76.0644L71.2413 76.1012C71.2427 76.3865 71.2523 78.2543 71.2411 79.2197C71.2391 79.3691 71.2503 79.5158 71.2736 79.6585C69.7307 79.9289 68.5444 81.3333 68.5444 83.0067V95.7951C68.5444 97.6597 70.0173 99.1903 71.8151 99.1903H90.4313C92.2291 99.1903 93.702 97.6597 93.702 95.7951V83.0067C93.702 81.3332 92.5156 79.9288 90.9726 79.6584C90.9959 79.5157 91.0071 79.3691 91.0052 79.2197C90.993 78.2388 91.0021 76.3589 91.0052 76.1464V76.0765ZM86.0396 79.6115C86.0246 79.5046 86.0166 79.3961 86.0156 79.2865C86.0004 78.3117 86.0125 76.5746 86.0156 76.1767C85.9062 74.0418 85.3991 72.5355 84.5093 71.6973C83.7743 71.0019 82.6628 70.6648 81.1231 70.6648C79.7201 70.6648 78.6055 70.9988 77.8099 71.6548C76.7652 72.5173 76.2337 73.9932 76.2307 76.0401L76.2316 76.2215V76.2216C76.2346 76.7665 76.2436 78.3684 76.2307 79.2865C76.2292 79.3961 76.2207 79.5046 76.2054 79.6115H86.0396ZM83.3036 94.8597C84.5123 94.8597 85.0073 94.0033 84.403 92.9525L83.9535 92.169C83.3461 91.1152 83.5466 89.5512 84.3999 88.6887C84.3999 88.6887 84.5062 88.5764 84.5062 87.3373C84.5062 85.4605 82.9938 83.936 81.1231 83.936C79.2524 83.936 77.737 85.4605 77.737 87.3373C77.737 88.5764 77.8463 88.6887 77.8463 88.6887C78.6936 89.5512 78.8971 91.1152 78.2927 92.169L77.8402 92.9525C77.2389 94.0033 77.7309 94.8597 78.9426 94.8597H83.3036Z" fill="#012C46"/>
</svg>
