<svg width="162" height="162" viewBox="0 0 162 162" fill="none" xmlns="http://www.w3.org/2000/svg">
<circle cx="81" cy="81" r="79" stroke="#012C46" stroke-width="4"/>
<circle cx="81" cy="81" r="73.5" stroke="#012C46"/>
<path fill-rule="evenodd" clip-rule="evenodd" d="M79.7338 68.4992L69.3662 63.1089C68.9106 62.9262 68.6378 63.1089 68.7303 63.657L70.4575 74.9831C70.5476 75.5311 70.3673 76.1693 70.002 76.5347L61.6367 84.6651C61.2713 84.938 61.454 85.3033 61.9095 85.3959L73.5488 87.04C74.0043 87.04 74.6401 87.4955 74.8228 87.9534L80.0067 98.3638C80.2795 98.8216 80.6425 98.8216 80.8252 98.3638L86.009 87.9534C86.1917 87.4955 86.8275 87.1301 87.283 87.04L98.9247 85.3959C99.4704 85.3959 99.5605 85.0305 99.1975 84.6651L90.8299 76.5347C90.557 76.1693 90.2842 75.4386 90.3743 74.9831L92.3767 63.5668C92.4669 63.1089 92.194 62.8361 91.7385 63.1089L81.3708 68.4992C80.9153 68.772 80.1893 68.772 79.7338 68.4992ZM39.8077 86.6746C39.4447 87.04 39.5348 87.4054 40.0805 87.4054L49.2667 88.6818C49.7222 88.7743 50.358 89.1396 50.5407 89.5951L54.5431 97.5429C54.8159 97.9984 55.1789 97.9984 55.3616 97.5429L59.3615 89.5951C59.4311 89.39 59.6027 89.2358 59.7602 89.0942C59.8121 89.0476 59.8625 89.0023 59.9072 88.957L55.8147 88.4089L55.3616 89.505C55.0887 89.9605 54.7234 89.9605 54.5431 89.505L52.9061 86.3093C52.6332 85.8514 52.0876 85.3959 51.6321 85.3959L48.0852 84.8478C47.6297 84.7553 47.447 84.4825 47.8124 84.1171L50.358 81.6498C50.7234 81.2844 50.9037 80.6462 50.9037 80.0982L50.2679 76.6272C50.1777 76.1694 50.4506 75.8965 50.9037 76.1694L54.1777 77.8135C54.6332 78.0887 55.3616 78.0887 55.8147 77.8135L59.0887 76.1694C59.5442 75.8965 59.8171 76.1694 59.7269 76.6272L59.0887 80.0982C58.9986 80.5537 59.2714 81.2844 59.6344 81.6498L60.0899 82.1076L62.9084 79.3674L63.2737 77.0828L62.0899 70.4161L55.7246 73.7044C55.269 73.9772 54.5431 73.9772 54.0876 73.7044L45.9927 69.5027C45.5372 69.2299 45.2644 69.5027 45.3569 69.9606L46.9014 78.7269C46.9939 79.1848 46.721 79.9155 46.3557 80.2808L39.8077 86.6746ZM22.529 87.6783C22.166 88.0436 22.2561 88.409 22.8018 88.409L29.44 89.3224C29.8955 89.4125 30.5313 89.7779 30.714 90.2358L33.625 95.989C33.8978 96.4469 34.2608 96.4469 34.4435 95.989L37.3521 90.2358C37.4447 90.0531 37.5348 89.9606 37.625 89.8704L32.714 89.1397C32.2608 89.0472 32.0781 88.7743 32.4411 88.409L33.3522 87.4956L33.0793 86.8574C32.8065 86.3995 32.2608 85.944 31.8053 85.944L30.8041 85.8515C30.351 85.7613 30.1683 85.4861 30.5313 85.1208L31.2596 84.39C31.6226 84.0247 31.8053 83.3865 31.8053 82.8384L31.6226 81.8325C31.5325 81.377 31.8053 81.1018 32.2608 81.377L33.2596 81.925C33.7151 82.1979 34.4435 82.1979 34.8966 81.925L35.8978 81.377C36.3533 81.1018 36.6262 81.377 36.5336 81.8325L36.3533 82.8384C36.2608 83.2939 36.4435 83.9345 36.8065 84.2999L39.0817 82.1077C39.4446 81.7424 39.6273 81.1018 39.6273 80.5538L38.8088 75.8041L34.8966 77.8136C34.4435 78.0888 33.7151 78.0888 33.2596 77.8136L27.44 74.8005C26.9845 74.5253 26.7116 74.8005 26.8041 75.256L27.8955 81.5597C27.9856 82.0152 27.7128 82.7459 27.3498 83.1113L22.529 87.6783ZM121.024 87.4054C121.57 87.4054 121.66 87.04 121.297 86.6746L114.749 80.2808C114.384 79.9155 114.111 79.1848 114.203 78.7269L115.748 69.9606C115.84 69.5027 115.568 69.2299 115.112 69.5027L107.017 73.7044C106.564 73.9772 105.836 73.9772 105.38 73.7044L99.0149 70.4161L97.8334 77.0828L98.1964 79.3674L101.015 82.1076L101.47 81.6498C101.833 81.2844 102.106 80.5537 102.016 80.0982L101.38 76.6272C101.288 76.1694 101.561 75.8965 102.016 76.1694L105.29 77.8135C105.746 78.0887 106.472 78.0887 106.927 77.8135L110.201 76.1694C110.657 75.8965 110.929 76.1694 110.837 76.6272L110.201 80.0982C110.201 80.6462 110.384 81.2844 110.747 81.6498L113.292 84.1171C113.658 84.4825 113.475 84.7553 113.02 84.8478L109.473 85.3959C109.02 85.3959 108.474 85.8514 108.201 86.3093L106.564 89.505C106.381 89.9605 106.018 89.9605 105.746 89.505L105.2 88.4089L101.198 88.957C101.242 89.001 101.291 89.0451 101.342 89.0904C101.501 89.233 101.675 89.3881 101.743 89.5951L105.746 97.5429C105.926 97.9984 106.291 97.9984 106.564 97.5429L110.564 89.5951C110.747 89.1396 111.383 88.7743 111.838 88.6818L121.024 87.4054ZM138.576 87.6781C138.941 88.0435 138.849 88.4089 138.303 88.4089L131.665 89.3223C131.209 89.4124 130.573 89.7778 130.391 90.2357L127.482 95.9889C127.209 96.4468 126.844 96.4468 126.664 95.9889L123.753 90.2357C123.662 90.053 123.57 89.9604 123.48 89.8703L128.391 89.1396C128.846 89.047 129.027 88.7742 128.664 88.4089L127.755 87.4955L128.028 86.8573C128.301 86.3994 128.846 85.9439 129.299 85.9439L130.391 85.7612C130.846 85.6687 131.029 85.3958 130.664 85.0305L129.938 84.2997C129.572 83.9344 129.392 83.2938 129.392 82.7458L129.572 81.7422C129.665 81.2843 129.392 81.0115 128.936 81.2843L127.935 81.8324C127.482 82.1076 126.754 82.1076 126.298 81.8324L125.299 81.2843C124.844 81.0115 124.571 81.2843 124.661 81.7422L124.844 82.7458C124.934 83.2037 124.754 83.8419 124.388 84.2072L122.116 82.0151C121.753 81.6497 121.57 81.0115 121.57 80.4635L122.388 75.5311L126.298 77.5406C126.754 77.8134 127.482 77.8134 127.935 77.5406L133.757 74.5252C134.21 74.2523 134.483 74.5252 134.393 74.9831L133.302 81.2843C133.212 81.7422 133.484 82.4729 133.847 82.8383L138.576 87.6781Z" fill="#012C46"/>
</svg>
