<svg width="162" height="162" viewBox="0 0 162 162" fill="none" xmlns="http://www.w3.org/2000/svg">
<circle cx="81" cy="81" r="79" stroke="#012C46" stroke-width="4"/>
<circle cx="81" cy="81" r="73.5" stroke="#012C46"/>
<path fill-rule="evenodd" clip-rule="evenodd" d="M110.834 104.338V53.2695H110.831C110.831 53.2573 110.832 53.2452 110.833 53.233C110.833 53.2209 110.834 53.2087 110.834 53.1966C110.834 48.6686 97.3747 45 80.772 45C64.1663 45 50.7068 48.6686 50.7068 53.1966C50.7068 53.2209 50.7098 53.2451 50.7129 53.2694L50.7129 53.2695H50.7068V104.338H110.834ZM101.927 98.6315C99.4276 98.6315 97.402 96.6029 97.402 94.1035C97.402 91.6041 99.4276 89.5785 101.927 89.5785C104.429 89.5785 106.455 91.6041 106.455 94.1035C106.455 96.6029 104.429 98.6315 101.927 98.6315ZM90.2532 80.0184C90.2964 80.008 90.3377 79.9996 90.3775 79.9915L90.3943 79.9881C90.4186 79.9831 90.4424 79.9782 90.4658 79.9728C90.6115 80.0305 90.7603 80.0882 90.9274 80.149C91.0549 80.1945 91.1764 80.2522 91.2888 80.3221C92.1543 79.2744 93.4662 78.6093 94.93 78.6093C96.3968 78.6093 97.7057 79.2744 98.5743 80.3221C98.6866 80.2522 98.8081 80.1945 98.9357 80.149C99.0996 80.0882 99.2515 80.0305 99.3942 79.9728C99.414 79.9774 99.433 79.9812 99.452 79.985L99.4655 79.9877C99.48 79.9906 99.4946 79.9937 99.5096 79.9971C99.6797 80.0305 99.8649 80.0761 100.047 80.1277C99.7769 80.2522 99.4519 80.3859 99.0693 80.5225C98.2463 80.8201 97.8181 81.7312 98.1157 82.5542C98.3465 83.1889 98.9387 83.5837 99.5734 83.5989H98.4194C98.1187 83.3742 97.8788 83.0614 97.7422 82.6909C97.5387 82.129 97.6085 81.5338 97.8788 81.0509C97.1955 80.1702 96.1296 79.6023 94.93 79.6023C93.7335 79.6023 92.6675 80.1702 91.9812 81.0509C92.2515 81.5338 92.3213 82.129 92.1178 82.6909C91.9812 83.0614 91.7443 83.3742 91.4406 83.5989H90.2896C90.9243 83.5837 91.5135 83.1889 91.7443 82.5542C92.0419 81.7312 91.6167 80.8201 90.7907 80.5225C90.4081 80.3859 90.0831 80.2522 89.8128 80.1277C89.9616 80.0882 90.1135 80.0488 90.2532 80.0184ZM106.501 83.5989H99.6767C99.8346 83.5928 99.9955 83.5624 100.15 83.5078C101.013 83.195 101.696 82.8883 102.261 82.5633C102.823 82.2323 103.284 81.8922 103.655 81.3789C103.883 81.0631 104.065 80.647 104.101 80.1885C104.104 80.1733 104.104 80.1581 104.104 80.1399C104.107 80.1216 104.111 80.1034 104.111 80.0852C104.111 80.0812 104.11 80.0771 104.11 80.0731C104.109 80.065 104.108 80.0569 104.111 80.0488V80.0093C104.111 80.0024 104.11 79.9956 104.11 79.989L104.109 79.9645C104.108 79.9509 104.107 79.9376 104.107 79.9243V79.9212C104.089 79.4535 103.913 79.0253 103.707 78.7247C103.54 78.4939 103.366 78.3117 103.19 78.1598C102.935 77.9442 102.674 77.7893 102.416 77.6496C101.76 77.3095 101.077 77.106 100.463 76.9572C100.153 76.8843 99.868 76.8297 99.6098 76.7902C99.3487 76.7507 99.1391 76.7234 98.881 76.7234C98.8233 76.7234 98.7686 76.7264 98.7109 76.7325H91.1491C91.0914 76.7264 91.0367 76.7234 90.979 76.7234C90.6024 76.7264 90.2714 76.7811 89.825 76.8631C89.169 76.9967 88.3855 77.2002 87.6323 77.5555C87.3104 77.7134 86.9916 77.8926 86.6727 78.1598C86.618 78.2054 86.5634 78.254 86.5087 78.3056C86.3265 78.4848 86.1443 78.7034 85.9985 78.9919C85.8649 79.2501 85.7707 79.572 85.7555 79.9121V79.9364C85.7525 79.9607 85.7495 79.985 85.7495 80.0062V80.0397C85.7495 80.0454 85.7501 80.0524 85.7509 80.0598L85.7509 80.06C85.7517 80.0683 85.7525 80.0772 85.7525 80.0852V80.0882C85.7525 80.1127 85.7545 80.1391 85.7568 80.1707L85.7586 80.1945C85.7616 80.1976 85.7616 80.2006 85.7616 80.2036C85.8011 80.6561 85.9833 81.0661 86.205 81.3789C86.5785 81.8922 87.0371 82.2323 87.5989 82.5633C88.1638 82.8883 88.8471 83.195 89.7096 83.5078C89.8675 83.5624 90.0254 83.5928 90.1833 83.5989H82.6913V61.3931H106.501V83.5989ZM59.614 98.6315C57.1146 98.6315 55.086 96.6029 55.086 94.1035C55.086 91.6041 57.1146 89.5785 59.614 89.5785C62.1133 89.5785 64.142 91.6041 64.142 94.1035C64.139 96.6029 62.1133 98.6315 59.614 98.6315ZM55.0404 83.5989V61.3931H78.8527V83.5989H55.0404ZM91.7929 101.386H69.7481V99.0233H91.7929V101.386ZM91.7929 96.2688H69.7481V93.9091H91.7929V96.2688ZM91.7929 91.1516H69.7481V88.792H91.7929V91.1516ZM100.563 52.2005C101.505 52.2005 102.267 52.9658 102.267 53.9072C102.267 54.8486 101.505 55.6109 100.563 55.6109C99.619 55.6109 98.8567 54.8486 98.8567 53.9072C98.8567 52.9658 99.619 52.2005 100.563 52.2005ZM65.8548 49.4794H95.6892C96.1235 49.4794 96.4758 49.8317 96.4758 50.266V57.5454C96.4758 57.9827 96.1235 58.335 95.6892 58.335H65.8548C65.4175 58.335 65.0652 57.9827 65.0652 57.5454V50.266C65.0652 49.8317 65.4175 49.4794 65.8548 49.4794ZM60.2821 52.2005C61.2235 52.2005 61.9858 52.9658 61.9858 53.9072C61.9858 54.8486 61.2235 55.6109 60.2821 55.6109C59.3407 55.6109 58.5754 54.8486 58.5754 53.9072C58.5754 52.9658 59.3407 52.2005 60.2821 52.2005ZM99.2788 66.237V67.7008H90.6084L89.0961 65.2045L99.2788 66.237ZM90.5842 71.9889C90.4263 71.3147 90.4324 70.6435 90.5721 70.0119H88.5677L90.5569 68.0986H99.2789V69.9663C99.8377 72.3655 98.3435 74.7646 95.9444 75.3234C93.5422 75.8822 91.143 74.388 90.5842 71.9889ZM50.7068 110.436V106.698H110.834V110.436H106.92V115.34C106.92 115.778 106.567 116.13 106.133 116.13H97.7239C97.2866 116.13 96.9343 115.778 96.9343 115.34V110.436H64.6066V115.34C64.6066 115.778 64.2544 116.13 63.8201 116.13H55.4079C54.9736 116.13 54.6213 115.778 54.6213 115.34V110.436H50.7068ZM42.7866 74.4913H48.0343C48.4686 74.4913 48.8209 74.139 48.8209 73.7048V65.1772C48.8209 64.7429 48.4686 64.3906 48.0343 64.3906H42.7866C42.3523 64.3906 42 64.7429 42 65.1772V73.7048C42 74.139 42.3523 74.4913 42.7866 74.4913ZM113.507 64.3906H118.754C119.189 64.3906 119.544 64.7429 119.544 65.1772V73.7048C119.544 74.139 119.189 74.4913 118.754 74.4913H113.507C113.072 74.4913 112.72 74.139 112.72 73.7048V65.1772C112.72 64.7429 113.072 64.3906 113.507 64.3906Z" fill="#012C46"/>
</svg>
