<svg width="162" height="162" viewBox="0 0 162 162" fill="none" xmlns="http://www.w3.org/2000/svg">
<circle cx="81" cy="81" r="79" stroke="#012C46" stroke-width="4"/>
<circle cx="81" cy="81" r="73.5" stroke="#012C46"/>
<path fill-rule="evenodd" clip-rule="evenodd" d="M69.972 44C70.6826 44 71.2626 44.58 71.2626 45.2907V46.5844H55.7532V45.2907C55.7532 44.58 56.3333 44 57.0469 44H69.972ZM50.0074 78.3716C49.7006 77.4788 50.7484 76.2458 53.1232 74.697C53.1384 74.6879 53.1536 74.6818 53.1688 74.6757V73.7252H73.85V75.0189H54.0859C54.1041 75.0705 54.1163 75.1252 54.1193 75.1829C54.3683 78.0042 54.0434 79.5955 53.1536 79.9022C52.9288 79.9782 52.6889 80.0176 52.4429 80.0176C52.0573 80.0176 51.6594 79.9235 51.2859 79.7413C50.6724 79.4437 50.2048 78.9456 50.0074 78.3716ZM53.8156 104.747C52.7436 104.747 51.875 103.878 51.875 102.806V87.2971C51.875 86.2281 52.7436 85.3595 53.8156 85.3595H73.2031C73.6344 85.3595 74.0383 85.5053 74.3754 85.7634L79.0188 80.5977V70.4939C79.0188 68.7143 77.5003 67.2627 75.6326 67.2627H51.2312C49.4486 67.2627 48 68.7143 48 70.4939V105.394C48 107.174 49.4486 108.625 51.2312 108.625H67.0291L62.7167 104.747H53.8156ZM52.6615 78.7026C52.8195 78.4232 52.9075 77.4939 52.8924 76.4401C52.0451 77.0809 51.3739 77.7187 51.2555 78.0193C51.3587 78.241 51.5774 78.4445 51.8507 78.5811C52.1271 78.7148 52.4247 78.7573 52.6615 78.7026ZM50.6056 109.867C50.7058 111.443 51.1978 112.5 51.875 112.5C52.5492 112.5 53.0412 111.468 53.1475 109.916H51.2312C51.0186 109.916 50.8121 109.898 50.6056 109.867ZM73.2031 86.6502C73.3125 86.6502 73.4097 86.6836 73.5038 86.7352L61.0222 100.617C60.676 101.003 60.4998 101.498 60.5272 102.014C60.5545 102.533 60.7823 103.007 61.1679 103.353L61.2773 103.453H53.8156C53.4603 103.453 53.1688 103.165 53.1688 102.806V87.297C53.1688 86.9417 53.4603 86.6502 53.8156 86.6502H73.2031ZM106.023 86.3251L104.1 84.6002L104.966 83.6375L106.888 85.3624L106.023 86.3251ZM101.218 82.0036L99.2961 80.2757L100.159 79.316L102.081 81.044L101.218 82.0036ZM94.7286 97.6284L92.05 98.7065C91.7615 104.234 91.2453 104.993 91.0691 105.245C90.6865 105.807 90.1581 106.132 89.578 106.162C89.5476 106.165 89.5173 106.165 89.4899 106.165C88.9767 106.165 88.4999 105.931 88.1355 105.5C87.9988 105.342 87.601 104.874 86.3832 101.009C84.3242 101.883 79.3133 103.997 78.3142 104.243C77.558 104.522 76.7472 104.164 76.4556 103.444L75.8968 102.056C75.8422 101.917 75.7116 101.519 75.4717 100.766L75.4389 100.663C75.1783 99.8517 74.8402 98.7983 74.7033 98.4575C74.4725 97.8835 74.5788 97.2853 74.9766 96.8935C75.3836 96.4957 76.0122 96.3955 76.5832 96.6384C77.0873 96.851 78.3597 97.6588 79.2708 98.2571C80.9563 97.0393 82.5142 95.9369 83.9112 94.9681C82.165 91.4423 82.1255 90.8623 82.1133 90.6345C82.0769 90.0362 82.2834 89.5108 82.6934 89.1555C83.1337 88.7759 83.7411 88.6453 84.4062 88.782L84.4069 88.7821C84.6959 88.843 85.4413 88.9999 88.6092 91.8584C89.4839 91.3239 90.1216 90.9777 90.5559 90.8046C91.9832 90.2245 94.0331 90.4675 95.2084 91.3117C96.4657 91.2206 97.8809 91.7247 98.3577 92.9061C98.7798 93.9538 98.8709 95.9582 94.7286 97.6284ZM95.834 75.4288L97.7564 77.1537L96.8909 78.1164L94.9715 76.3884L95.834 75.4288ZM103.943 55.7771C103.815 55.6617 103.648 55.607 103.475 55.61C103.305 55.6222 103.144 55.6981 103.028 55.8256L93.0644 66.9073C94.7468 68.8478 94.759 71.7906 93.0006 73.7463C92.0743 74.7728 90.808 75.3802 89.4292 75.4531C88.2691 75.5168 87.1455 75.1919 86.2071 74.539L61.9848 101.482C61.8694 101.61 61.8087 101.774 61.8178 101.947C61.8269 102.117 61.9028 102.278 62.0334 102.393L83.1763 121.401C83.3068 121.52 83.4739 121.577 83.6439 121.568C83.814 121.559 83.975 121.483 84.0904 121.356L108.313 94.4124C107.559 93.5469 107.122 92.4657 107.061 91.3026C106.989 89.9269 107.453 88.5998 108.379 87.5733C110.138 85.6175 113.062 85.3169 115.17 86.7837L125.134 75.6991C125.252 75.5715 125.31 75.4045 125.301 75.2344C125.292 75.0613 125.216 74.9034 125.088 74.788L103.943 55.7771ZM94.5859 92.4657C94.7256 92.5872 94.9139 92.6479 95.1021 92.6176C95.913 92.5083 96.9061 92.7664 97.1581 93.392C97.723 94.789 95.5729 95.8944 94.2427 96.4319L91.1846 97.6619C90.9507 97.759 90.7928 97.9807 90.7806 98.2298C90.5833 102.32 90.2401 104.17 90.0032 104.516C89.8574 104.735 89.6752 104.862 89.5112 104.871C89.3442 104.878 89.2045 104.765 89.1195 104.662C89.077 104.613 88.667 104.039 87.4067 99.9426C87.352 99.7695 87.2244 99.6237 87.0605 99.5447C86.9724 99.5083 86.8813 99.484 86.7871 99.484C86.7021 99.484 86.614 99.5022 86.5351 99.5387C83.5559 100.811 78.6058 102.873 78.0075 102.989C77.965 102.998 77.883 103.025 77.8435 103.04C77.7706 103.074 77.6825 103.034 77.6552 102.958L77.0964 101.57C77.0626 101.491 76.9386 101.106 76.8052 100.692L76.8051 100.691L76.805 100.691L76.7016 100.371C76.404 99.4354 76.0639 98.3755 75.9029 97.9747C75.8634 97.8805 75.8725 97.8258 75.8847 97.8167C75.9029 97.7955 75.9728 97.7833 76.076 97.8258C76.4131 97.9747 77.5337 98.661 78.9307 99.5781C79.1554 99.7269 79.447 99.7209 79.6656 99.563C81.676 98.1113 83.5073 96.8176 85.1047 95.7152C85.3719 95.533 85.46 95.1838 85.3173 94.8922C83.5043 91.2844 83.4101 90.6193 83.404 90.5555C83.3949 90.4249 83.4132 90.2427 83.5407 90.1364C83.6652 90.0271 83.8869 89.9937 84.145 90.0484C84.2665 90.0727 85.0409 90.346 88.0991 93.143C88.3117 93.3373 88.6305 93.3677 88.8765 93.2128C89.8878 92.5781 90.6167 92.1712 91.0388 92.0041C92.208 91.5273 93.9026 91.8644 94.5859 92.4657ZM69.9719 65.9719H68.6782V47.8751H69.9719V65.9719ZM57.0469 65.9719H58.3376V47.8751H57.0469V65.9719Z" fill="#012C46"/>
</svg>
