<svg width="162" height="162" viewBox="0 0 162 162" fill="none" xmlns="http://www.w3.org/2000/svg">
<circle cx="81" cy="81" r="79" stroke="#012C46" stroke-width="4"/>
<circle cx="81" cy="81" r="73.5" stroke="#012C46"/>
<path fill-rule="evenodd" clip-rule="evenodd" d="M51.8738 107.244H105.126V82.3112L113.999 74.4973V107.244C113.999 112.152 110.027 116.136 105.126 116.136H51.8738C46.9723 116.136 43 112.152 43 107.244V53.892C43 48.9814 46.9723 45 51.8738 45H105.126C108.196 45 110.899 46.567 112.49 48.9449L105.126 55.4135V53.892H51.8738V107.244ZM77.2804 101L69.4908 92.1144L57.9749 78.992L67.0248 71.0263L78.5377 84.1517L111.546 55.0947L119.615 64.2935L77.5568 101.316L77.2804 101Z" fill="#012C46"/>
</svg>
