<svg width="162" height="162" viewBox="0 0 162 162" fill="none" xmlns="http://www.w3.org/2000/svg">
<circle cx="81" cy="81" r="79" stroke="#012C46" stroke-width="4"/>
<circle cx="81" cy="81" r="73.5" stroke="#012C46"/>
<path fill-rule="evenodd" clip-rule="evenodd" d="M98.4158 82.7653C98.4158 82.7228 98.4128 82.6924 98.4128 82.6924C98.4128 82.6924 98.2518 82.6803 98.1668 82.6772C95.9559 82.6317 90.8175 83.728 86.2622 85.207C83.4348 86.1241 80.8565 86.9744 78.6517 87.9189C77.276 88.505 76.5229 88.8361 75.9368 89.1155C75.1138 89.4708 74.5033 90.1359 74.4122 90.2907L74.3913 90.326L74.391 90.3265L74.3902 90.3279L74.3893 90.3293C74.1759 90.689 73.9705 91.035 73.7623 91.381C66.7168 93.1515 57.2568 95.1801 53.5275 95.9667C53.9254 95.5415 54.3232 95.1133 54.7058 94.6942C47.1683 95.6023 41.8264 98.7606 41.8264 98.7606C41.7663 98.8426 41.7073 98.9226 41.649 99.0018L41.6486 99.0024L41.6479 99.0033L41.6475 99.0039L41.6466 99.0051C41.5437 99.1448 41.4427 99.2819 41.3405 99.4227L40.516 99.4874L40.513 99.4876L40.5012 99.4886C40.0815 99.5215 39.7998 99.5436 39.6854 99.5533C39.6186 99.5502 39.2329 99.5198 38.8776 99.3498C38.6893 99.2587 38.5131 99.1402 38.3613 98.9762C38.2125 98.8062 38.0789 98.5936 37.9817 98.2474C37.9665 98.1745 37.9513 98.1016 37.9361 98.0166C37.8997 97.7919 37.9361 97.6582 38.0485 97.4517C38.2155 97.148 38.6468 96.7897 39.0567 96.5589C39.2602 96.4374 39.4515 96.3463 39.5882 96.2886L39.6236 96.2724C39.6735 96.2497 39.7128 96.2317 39.74 96.2218L39.7735 96.2066H39.7765L39.8342 96.1884L39.8858 96.1641C39.8858 96.1641 52.8473 90.0296 65.9059 83.8252C72.4352 80.7245 78.9888 77.6056 83.9602 75.2278C86.4414 74.0403 88.5338 73.0382 90.0279 72.3123L90.1811 72.2376L90.1815 72.2374C90.8573 71.9078 91.403 71.6416 91.8015 71.4438C91.9818 71.3549 92.1303 71.2787 92.2505 71.2171L92.3177 71.1826C92.3452 71.1677 92.3711 71.1542 92.3952 71.1417L92.3953 71.1417C92.4299 71.1237 92.461 71.1076 92.4878 71.0915L92.5637 71.049L92.6791 70.9761C100.01 65.7435 105.316 62.5093 109.209 60.4685C113.108 58.4277 115.574 57.5865 117.308 57.1248C117.912 56.9631 118.428 56.849 118.9 56.7447C119.278 56.6611 119.628 56.5838 119.972 56.4932L120.078 56.4628C121.387 56.229 122.744 56.3383 123.993 56.5661L124.387 56.6724C123.919 57.7734 123.247 58.6833 122.748 59.3603L122.748 59.3604C122.593 59.5704 122.454 59.7579 122.343 59.9218C122.104 60.2741 122.283 60.5474 122.514 60.7266C122.771 60.9268 123.46 61.3868 124.063 61.789L124.064 61.7894C124.293 61.9423 124.509 62.0868 124.685 62.2056C125.121 62.4995 125.401 62.2187 125.507 62.1124L125.514 62.1053C127.124 60.4897 127.795 58.7739 128.077 57.6776L128.827 57.8841L128.861 57.8901L129.016 57.9266L129.049 57.9357L129.225 58.0086L129.432 58.0116C130.141 58.0349 130.821 58.0489 131.464 58.0622L131.464 58.0622C132.83 58.0903 134.026 58.1149 134.974 58.2181C135.672 58.291 136.228 58.4095 136.596 58.5583C136.969 58.7101 137.121 58.8559 137.209 58.9925V58.9956C137.23 59.032 137.255 59.0745 137.276 59.1201C135.268 64.96 116.075 75.2794 98.4158 82.7653ZM137.148 61.3765C136.79 62.3817 136.022 63.7605 134.555 65.534C133.307 67.0464 129.896 70.4963 123.543 74.6325C123.063 74.9453 122.195 75.4434 121.056 76.0599C117.059 78.2252 109.668 81.9028 101.999 85.6018C98.4948 87.2933 94.9295 88.9879 91.601 90.5519C91.3247 90.4395 91.0301 90.3454 90.6991 90.2877C92.8522 88.3623 95.3273 86.1788 98.2063 83.6794C101.565 82.2612 104.991 80.7397 108.356 79.1545C121.63 72.9076 133.935 65.7375 137.361 60.6294C137.315 60.8481 137.249 61.0941 137.148 61.3765ZM93.4019 98.0986C92.6154 98.296 91.6253 97.0478 91.1911 95.3168C90.7537 93.5797 91.0423 92.0096 91.8288 91.8153C92.6154 91.6179 93.6084 92.863 94.0427 94.597C94.477 96.3311 94.1915 97.8981 93.4019 98.0986ZM70.2092 97.2148C69.916 97.2342 69.6408 97.2509 69.3853 97.2665C69.1591 97.2803 68.9485 97.2931 68.7545 97.306C68.1562 97.3424 66.0547 97.5003 63.2122 97.7159C59.7106 97.9862 55.1006 98.3446 50.8885 98.6756C51.4685 98.1016 52.0395 97.5307 52.5922 96.9506C55.1462 96.4161 65.417 94.2417 73.2035 92.3103C72.1255 94.1111 71.1202 95.748 70.2092 97.2148ZM139.186 57.7626C138.77 57.0914 138.126 56.6572 137.455 56.393C136.438 55.9951 135.281 55.8767 133.95 55.8038C133.205 55.7667 132.404 55.7502 131.557 55.7327C130.948 55.7201 130.314 55.707 129.659 55.6854C129.58 55.6641 129.492 55.6428 129.404 55.6246L124.5 54.2884L124.451 54.2793C123.027 54.0181 121.366 53.8602 119.632 54.173L119.574 54.1821L119.516 54.2003L119.373 54.2368C119.105 54.3096 118.788 54.3801 118.418 54.4625C117.94 54.5689 117.373 54.6951 116.707 54.8715C114.818 55.3786 112.146 56.2958 108.131 58.4034C104.116 60.5049 98.7408 63.7939 91.3642 69.0507C91.2609 69.1084 90.9268 69.2754 90.444 69.5123C86.7602 71.3284 73.8595 77.472 61.8942 83.151L61.4818 83.3467C57.6218 85.1787 53.8809 86.9541 50.5818 88.5172C48.5887 87.7722 44.2941 85.9476 40.2664 84.2363L40.2662 84.2363L40.2661 84.2362C36.1991 82.5083 32.4041 80.8959 31.5253 80.6273C29.36 79.9744 25.8645 81.2104 25.8645 81.2104L22.7092 82.4616C22.7092 82.4616 21.1361 83.154 22.6758 84.4113C23.9695 85.4682 33.235 93.5432 36.1596 96.0973C36.1497 96.1106 36.1399 96.1236 36.1301 96.1366C36.0977 96.1795 36.0661 96.2213 36.0381 96.2704C35.6979 96.8413 35.4945 97.6096 35.6402 98.4144L35.6465 98.451C35.6697 98.5845 35.6982 98.7176 35.7344 98.8457C35.9257 99.5806 36.2841 100.182 36.7123 100.625C37.3591 101.293 38.1092 101.597 38.6771 101.743C39.0051 101.825 39.2693 101.855 39.4607 101.873C38.5008 103.076 37.6514 104.075 36.9541 104.895L36.9541 104.895C35.0151 107.176 34.2524 108.073 35.5613 108.111C36.3327 108.123 39.4485 107.091 40.9791 106.274C43.5453 104.91 45.9262 103.146 48.1371 101.227C49.2834 101.138 50.4935 101.043 51.7302 100.947C54.0352 100.767 56.433 100.581 58.6842 100.407C63.4005 100.039 67.4821 99.7294 68.6877 99.6444C67.7923 101.063 67.0122 102.281 66.3576 103.303L66.3576 103.303L66.3571 103.304L66.3562 103.305C65.626 104.445 65.0521 105.341 64.6486 106.001C63.7224 107.221 64.1263 107.461 65.3927 107.155C67.8829 106.547 71.9675 105.469 74.3059 104.44C75.8639 103.747 77.2274 102.63 79.8877 100.188C81.7949 101.764 85.506 102.274 89.4418 101.287C94.6592 99.9754 95.1178 97.3151 94.3768 94.3602C94.1794 93.5675 93.9091 92.8417 93.5295 92.2161C97.6536 90.2816 102.075 88.1649 106.278 86.118C110.588 84.0226 114.663 82 117.928 80.3267C119.568 79.4916 121.001 78.7414 122.167 78.1098C123.334 77.4781 124.223 76.9709 124.809 76.5852C131.345 72.3275 134.904 68.7653 136.35 67.019C137.935 65.0997 138.858 63.5114 139.344 62.16C139.827 60.8116 139.86 59.6698 139.62 58.78C139.517 58.3821 139.359 58.042 139.186 57.7626ZM65.9302 87.6822C65.092 88.077 64.7276 89.0761 65.1254 89.9204C65.5202 90.7616 66.5224 91.123 67.3605 90.7251C68.2018 90.3303 68.5601 89.3251 68.1653 88.4869C67.7705 87.6457 66.7714 87.2874 65.9302 87.6822ZM72.0891 86.6374C71.6912 85.7992 72.0526 84.797 72.8939 84.4022C73.732 84.0044 74.7312 84.3658 75.129 85.21C75.5238 86.0513 75.1624 87.0534 74.3242 87.4452C73.483 87.84 72.4839 87.4816 72.0891 86.6374ZM79.9728 81.0709C79.1316 81.4687 78.7702 82.4648 79.165 83.309C79.5628 84.1503 80.562 84.5117 81.4001 84.1138C82.2414 83.719 82.6027 82.7169 82.208 81.8756C81.8101 81.0375 80.814 80.6761 79.9728 81.0709ZM86.1134 80.0352C85.7186 79.1971 86.08 78.1949 86.9182 77.8001C87.7564 77.4053 88.7586 77.7637 89.1534 78.6049C89.5482 79.4461 89.1898 80.4483 88.3486 80.8431C87.5104 81.2379 86.5052 80.8795 86.1134 80.0352ZM94.0549 74.4383C93.2136 74.8331 92.8522 75.8383 93.2501 76.6765C93.6418 77.5177 94.644 77.8791 95.4852 77.4843C96.3264 77.0895 96.6848 76.0873 96.29 75.2461C95.8922 74.4049 94.893 74.0435 94.0549 74.4383ZM100.293 73.3632C99.8978 72.522 100.256 71.5198 101.097 71.122C101.936 70.7272 102.935 71.0886 103.333 71.9298C103.727 72.774 103.366 73.7732 102.528 74.168C101.687 74.5628 100.687 74.2014 100.293 73.3632Z" fill="#012C46"/>
</svg>
