<svg width="162" height="162" viewBox="0 0 162 162" fill="none" xmlns="http://www.w3.org/2000/svg">
<circle cx="81" cy="81" r="79" stroke="#012C46" stroke-width="4"/>
<circle cx="81" cy="81" r="73.5" stroke="#012C46"/>
<path d="M54.8594 92.6424L92.2253 84.4975C94.6761 83.9599 96.2249 81.5426 95.6934 79.0827L89.3008 49.6097C88.7724 47.1558 86.355 45.5979 83.9073 46.1294L46.5383 54.2804C44.0936 54.8118 42.5387 57.2353 43.0732 59.6891L49.4628 89.1621C49.9973 91.6159 52.4086 93.1739 54.8594 92.6424Z" fill="#012C46"/>
<path d="M79.8501 46.0231L46.335 53.3329C45.6061 53.4908 44.938 53.7823 44.3337 54.2105C43.7475 54.6235 43.2616 55.1337 42.8729 55.7381C42.4872 56.3455 42.2261 56.9984 42.0955 57.7029C41.9588 58.4348 41.9679 59.1637 42.1289 59.8956L48.5185 89.3686C48.6825 90.1369 48.9953 90.8324 49.4569 91.461C49.8972 92.0654 50.4439 92.5604 51.0907 92.9461C51.2001 93.0098 51.3185 93.0524 51.4461 93.0706C51.5736 93.0888 51.6981 93.0827 51.8226 93.0493C51.9471 93.0189 52.0625 92.9643 52.1628 92.8853C52.266 92.8094 52.3511 92.7153 52.4148 92.6059C52.4816 92.4936 52.5242 92.3751 52.5424 92.2476C52.5606 92.12 52.5545 91.9955 52.5211 91.871C52.4908 91.7435 52.4361 91.6311 52.3571 91.5278C52.2812 91.4246 52.1871 91.3395 52.0777 91.2758C51.6586 91.0237 51.3033 90.7048 51.0179 90.31C50.7202 89.9061 50.5168 89.4536 50.4074 88.9586L44.0209 59.4826C43.9176 59.0088 43.9085 58.5351 43.9966 58.0613C44.0816 57.6058 44.2517 57.1806 44.5037 56.7888C44.7558 56.394 45.0686 56.0661 45.4482 55.7988C45.84 55.5225 46.2712 55.3311 46.745 55.2279L80.2601 47.9181C80.3846 47.8907 80.5 47.8422 80.6063 47.7693C80.7126 47.6934 80.8006 47.6022 80.8675 47.496C80.9373 47.3866 80.9829 47.2682 81.0072 47.1437C81.0284 47.0161 81.0284 46.8886 81.0011 46.7641C80.9738 46.6396 80.9221 46.5241 80.8492 46.4179C80.7764 46.3116 80.6852 46.2235 80.579 46.1536C80.4696 46.0838 80.3542 46.0382 80.2267 46.014C80.0991 45.9927 79.9746 45.9957 79.8501 46.0231ZM55.066 93.5899L92.4319 85.4449C93.1608 85.284 93.8289 84.9924 94.4333 84.5642C95.0194 84.1512 95.5053 83.641 95.894 83.0367C96.2797 82.4293 96.5409 81.7764 96.6714 81.0688C96.8081 80.3399 96.799 79.6111 96.6411 78.8792L90.294 49.6157C90.2666 49.4912 90.218 49.3758 90.1452 49.2695C90.0692 49.1632 89.9812 49.0751 89.8718 49.0053C89.7656 48.9354 89.6471 48.8899 89.5196 48.8686C89.3951 48.8443 89.2675 48.8474 89.143 48.8747C89.0185 48.902 88.9031 48.9537 88.7968 49.0265C88.6905 49.0994 88.6024 49.1905 88.5356 49.2968C88.4658 49.4062 88.4202 49.5246 88.3959 49.6491C88.3747 49.7767 88.3747 49.9042 88.402 50.0287L94.7491 79.2892C94.8523 79.766 94.8584 80.2397 94.7703 80.7104C94.6853 81.169 94.5152 81.5942 94.2632 81.9859C94.0111 82.3777 93.6983 82.7087 93.3187 82.9759C92.927 83.2523 92.4927 83.4436 92.0189 83.5469L54.6561 91.6949C54.5285 91.7222 54.4131 91.7708 54.3098 91.8437C54.2036 91.9196 54.1155 92.0107 54.0456 92.117C53.9758 92.2263 53.9302 92.3448 53.909 92.4693C53.8847 92.5968 53.8877 92.7244 53.9151 92.8489C53.9424 92.9734 53.991 93.0888 54.0639 93.1951C54.1398 93.3014 54.2279 93.3895 54.3372 93.4593C54.4465 93.5291 54.5619 93.5747 54.6895 93.599C54.814 93.6203 54.9415 93.6172 55.066 93.5899Z" fill="#508CA2"/>
<path d="M90.3243 54.3108L44.0938 64.3902L90.3243 54.3108Z" fill="#012C46"/>
<path d="M90.1179 53.3632L43.8873 63.4427C43.7628 63.47 43.6474 63.5216 43.5411 63.5945C43.4348 63.6674 43.3468 63.7585 43.2769 63.8648C43.2101 63.9741 43.1615 64.0926 43.1403 64.2171C43.116 64.3446 43.119 64.4722 43.1463 64.5967C43.1737 64.7243 43.2253 64.8397 43.2982 64.9459C43.3711 65.0492 43.4622 65.1373 43.5685 65.2071C43.6778 65.277 43.7932 65.3225 43.9207 65.3468C44.0483 65.3681 44.1728 65.3681 44.2973 65.3407L90.5309 55.2583C90.6555 55.2309 90.7709 55.1823 90.8771 55.1095C90.9834 55.0366 91.0685 54.9455 91.1383 54.8361C91.2082 54.7268 91.2537 54.6114 91.278 54.4839C91.2993 54.3563 91.2993 54.2318 91.2719 54.1042C91.2446 53.9797 91.193 53.8643 91.1201 53.758C91.0472 53.6518 90.9561 53.5637 90.8468 53.4938C90.7405 53.424 90.622 53.3784 90.4975 53.3572C90.37 53.3329 90.2455 53.3359 90.1179 53.3632Z" fill="#508CA2"/>
<path d="M70.7819 68.4323L77.0167 67.0748L75.6622 60.8188L69.4275 62.1824L70.7819 68.4323Z" fill="#012C46"/>
<path d="M70.9885 69.3829L77.2233 68.0223C77.3478 67.995 77.4632 67.9434 77.5695 67.8705C77.6727 67.7976 77.7608 67.7065 77.8307 67.6002C77.9005 67.4909 77.9461 67.3724 77.9704 67.2479C77.9916 67.1204 77.9886 66.9928 77.9612 66.8683L76.6068 60.6123C76.5795 60.4878 76.5309 60.3724 76.458 60.2661C76.3821 60.1598 76.294 60.0718 76.1847 60.0019C76.0753 59.9321 75.9599 59.8865 75.8324 59.8622C75.7079 59.841 75.5803 59.844 75.4558 59.8713L69.2211 61.2319C69.0966 61.2592 68.9812 61.3108 68.8749 61.3837C68.7686 61.4566 68.6835 61.5477 68.6137 61.657C68.5438 61.7663 68.4983 61.8818 68.474 62.0093C68.4527 62.1368 68.4527 62.2614 68.4801 62.3889L69.8376 68.6388C69.8649 68.7664 69.9135 68.8818 69.9864 68.985C70.0593 69.0913 70.1504 69.1794 70.2597 69.2492C70.366 69.3191 70.4844 69.3647 70.6089 69.3889C70.7365 69.4102 70.864 69.4102 70.9885 69.3829C71.1131 69.3555 71.2285 69.3039 71.3347 69.231C71.441 69.1581 71.5261 69.067 71.5959 68.9577C71.6658 68.8484 71.7113 68.733 71.7356 68.6054C71.7569 68.4779 71.7569 68.3534 71.7295 68.2258L70.3721 61.9759L69.4276 62.1824L69.6341 63.1299L75.8688 61.7663L75.6623 60.8188L74.7148 61.0253L76.0693 67.2813L77.0168 67.0748L76.8103 66.1243L70.5755 67.4848C70.451 67.5121 70.3356 67.5607 70.2293 67.6367C70.1261 67.7095 70.038 67.8007 69.9681 67.9069C69.8983 68.0163 69.8527 68.1347 69.8284 68.2592C69.8072 68.3868 69.8102 68.5143 69.8376 68.6388C69.8649 68.7664 69.9135 68.8818 69.9864 68.985C70.0593 69.0913 70.1504 69.1794 70.2597 69.2492C70.366 69.3191 70.4844 69.3647 70.6089 69.3889C70.7365 69.4102 70.864 69.4102 70.9885 69.3829Z" fill="#508CA2"/>
<path d="M61.483 70.4609L67.7147 69.1004L66.3602 62.8505L60.1255 64.208L61.483 70.4609Z" fill="#012C46"/>
<path d="M61.6864 71.4085L67.9212 70.048C68.0457 70.0206 68.1611 69.972 68.2674 69.8992C68.3737 69.8263 68.4617 69.7352 68.5285 69.6258C68.5984 69.5165 68.6439 69.4011 68.6682 69.2736C68.6925 69.146 68.6895 69.0215 68.6622 68.894L67.3077 62.644C67.2804 62.5165 67.2288 62.4011 67.1559 62.2948C67.083 62.1915 66.9919 62.1035 66.8826 62.0336C66.7763 61.9638 66.6578 61.9182 66.5333 61.8939C66.4058 61.8727 66.2812 61.8727 66.1537 61.9L59.922 63.2605C59.7944 63.2879 59.679 63.3364 59.5758 63.4124C59.4695 63.4852 59.3814 63.5764 59.3116 63.6826C59.2417 63.792 59.1962 63.9104 59.1749 64.0349C59.1506 64.1625 59.1537 64.29 59.181 64.4145L60.5354 70.6675C60.5628 70.792 60.6144 70.9074 60.6873 71.0137C60.7602 71.12 60.8513 71.2081 60.9576 71.2779C61.0669 71.3447 61.1823 71.3933 61.3099 71.4146C61.4374 71.4389 61.5619 71.4358 61.6864 71.4085C61.814 71.3812 61.9294 71.3295 62.0326 71.2567C62.1389 71.1838 62.227 71.0927 62.2968 70.9833C62.3667 70.877 62.4122 70.7586 62.4335 70.6311C62.4578 70.5065 62.4548 70.379 62.4274 70.2545L61.073 64.0015L60.1255 64.208L60.332 65.1586L66.5667 63.798L66.3602 62.8505L65.4157 63.057L66.7702 69.307L67.7147 69.1005L67.5112 68.1529L61.2765 69.5104C61.1519 69.5378 61.0365 69.5894 60.9302 69.6623C60.824 69.7352 60.7359 69.8263 60.666 69.9356C60.5992 70.0419 60.5506 70.1603 60.5294 70.2879C60.5051 70.4154 60.5081 70.5399 60.5354 70.6675C60.5628 70.792 60.6144 70.9074 60.6873 71.0137C60.7602 71.12 60.8513 71.2081 60.9576 71.2779C61.0669 71.3447 61.1823 71.3933 61.3099 71.4146C61.4374 71.4389 61.5619 71.4358 61.6864 71.4085Z" fill="#508CA2"/>
<path d="M52.1809 72.4867L58.4186 71.1292L57.0642 64.8762L50.8264 66.2367L52.1809 72.4867Z" fill="#012C46"/>
<path d="M52.3875 73.434L58.6252 72.0765C58.7498 72.0492 58.8652 71.9976 58.9714 71.9247C59.0777 71.8518 59.1628 71.7607 59.2326 71.6514C59.3025 71.5451 59.348 71.4266 59.3723 71.2991C59.3936 71.1746 59.3936 71.047 59.3662 70.9225L58.0088 64.6696C57.9814 64.545 57.9328 64.4296 57.8599 64.3233C57.7871 64.2171 57.696 64.129 57.5866 64.0591C57.4803 63.9893 57.3619 63.9437 57.2343 63.9225C57.1098 63.8982 56.9823 63.9012 56.8578 63.9286L50.62 65.286C50.4955 65.3134 50.3801 65.365 50.2738 65.4379C50.1675 65.5108 50.0825 65.6019 50.0126 65.7112C49.9428 65.8175 49.8972 65.9359 49.8729 66.0635C49.8517 66.188 49.8517 66.3155 49.879 66.4401L51.2365 72.693C51.2638 72.8175 51.3124 72.9329 51.3853 73.0392C51.4582 73.1455 51.5493 73.2336 51.6586 73.3034C51.7649 73.3733 51.8833 73.4188 52.0079 73.4431C52.1354 73.4644 52.2599 73.4614 52.3875 73.434C52.512 73.4067 52.6274 73.3581 52.7337 73.2852C52.84 73.2093 52.925 73.1212 52.9948 73.0119C53.0647 72.9026 53.1102 72.7872 53.1345 72.6596C53.1558 72.5321 53.1528 72.4076 53.1285 72.28L51.771 66.0301L50.8265 66.2366L51.03 67.1841L57.2678 65.8236L57.0643 64.8761L56.1168 65.0826L57.4743 71.3325L58.4187 71.129L58.2122 70.1785L51.9744 71.539C51.8499 71.5663 51.7345 71.6149 51.6282 71.6878C51.525 71.7637 51.4369 71.8548 51.3671 71.9611C51.2972 72.0705 51.2517 72.1859 51.2274 72.3134C51.2061 72.441 51.2092 72.5655 51.2365 72.693C51.2638 72.8175 51.3124 72.9329 51.3853 73.0392C51.4582 73.1455 51.5493 73.2336 51.6586 73.3034C51.7649 73.3733 51.8833 73.4188 52.0079 73.4431C52.1354 73.4644 52.2599 73.4614 52.3875 73.434Z" fill="#508CA2"/>
<path d="M81.8727 74.6519L88.1044 73.2944L86.75 67.0385L80.5122 68.402L81.8727 74.6519Z" fill="#012C46"/>
<path d="M82.0762 75.6025L88.3109 74.2419C88.4354 74.2146 88.5539 74.166 88.6571 74.0931C88.7634 74.0172 88.8515 73.9261 88.9213 73.8198C88.9881 73.7105 89.0367 73.5951 89.058 73.4675C89.0823 73.34 89.0793 73.2155 89.0519 73.0879L87.6975 66.8319C87.6701 66.7074 87.6185 66.592 87.5456 66.4857C87.4727 66.3794 87.3816 66.2913 87.2753 66.2215C87.166 66.1516 87.0506 66.1061 86.9231 66.0848C86.7955 66.0605 86.671 66.0636 86.5465 66.0909C86.5435 66.0909 86.5435 66.0909 86.5435 66.0909L80.3057 67.4545C80.1812 67.4818 80.0658 67.5304 79.9595 67.6063C79.8562 67.6792 79.7681 67.7703 79.6983 67.8766C79.6285 67.9859 79.5829 68.1044 79.5616 68.2289C79.5373 68.3564 79.5404 68.484 79.5677 68.6085L80.9252 74.8614C80.9525 74.986 81.0042 75.1014 81.077 75.2077C81.1499 75.3139 81.241 75.402 81.3504 75.4688C81.4567 75.5387 81.5751 75.5873 81.6996 75.6085C81.8272 75.6328 81.9517 75.6298 82.0792 75.6025C82.2037 75.5751 82.3191 75.5235 82.4254 75.4506C82.5287 75.3777 82.6168 75.2866 82.6866 75.1773C82.7564 75.071 82.802 74.9526 82.8233 74.825C82.8476 74.6975 82.8445 74.5729 82.8172 74.4454L81.4597 68.1955L80.5122 68.402L80.7187 69.3495L86.9565 67.989L86.75 67.0384L85.8055 67.2449L87.1599 73.5009L88.1044 73.2944L87.9009 72.3469L81.6662 73.7044C81.5417 73.7317 81.4263 73.7834 81.32 73.8562C81.2137 73.9291 81.1256 74.0202 81.0588 74.1296C80.989 74.2358 80.9434 74.3543 80.9191 74.4818C80.8979 74.6063 80.8979 74.7339 80.9252 74.8584C80.9525 74.986 81.0042 75.1014 81.077 75.2077C81.1499 75.3139 81.241 75.399 81.3473 75.4688C81.4567 75.5387 81.5721 75.5873 81.6996 75.6085C81.8272 75.6328 81.9517 75.6298 82.0762 75.6025Z" fill="#508CA2"/>
<path d="M72.5708 76.6806L78.8055 75.3201L77.451 69.0671L71.2163 70.4277L72.5708 76.6806Z" fill="#012C46"/>
<path d="M72.7771 77.628L79.0119 76.2705C79.1364 76.2431 79.2518 76.1915 79.3581 76.1186C79.4613 76.0457 79.5494 75.9546 79.6192 75.8453C79.6891 75.739 79.7346 75.6206 79.7589 75.493C79.7802 75.3685 79.7771 75.241 79.7498 75.1165L78.3954 68.8605C78.368 68.7329 78.3194 68.6175 78.2466 68.5112C78.1706 68.408 78.0826 68.3199 77.9732 68.25C77.8669 68.1802 77.7485 68.1346 77.621 68.1103C77.4964 68.0891 77.3689 68.0891 77.2444 68.1164L71.0096 69.48C70.8851 69.5073 70.7697 69.5589 70.6634 69.6318C70.5571 69.7047 70.4721 69.7958 70.4023 69.9052C70.3324 70.0114 70.2869 70.1299 70.2626 70.2574C70.2413 70.3819 70.2413 70.5095 70.2686 70.634L71.6261 76.887C71.6535 77.0115 71.7021 77.1269 71.7749 77.2332C71.8478 77.3395 71.9389 77.4275 72.0483 77.4974C72.1546 77.5672 72.273 77.6128 72.4005 77.634C72.5251 77.6583 72.6526 77.6553 72.7771 77.628C72.9016 77.6006 73.017 77.552 73.1233 77.4761C73.2296 77.4032 73.3146 77.3121 73.3845 77.2058C73.4543 77.0965 73.4999 76.9781 73.5242 76.8536C73.5454 76.726 73.5454 76.5985 73.5181 76.4739L72.1606 70.224L71.2162 70.4275L71.4227 71.378L77.6574 70.0145L77.4509 69.067L76.5034 69.2704L77.8578 75.5264L78.8053 75.3199L78.5988 74.3724L72.3641 75.7329C72.2396 75.7603 72.1242 75.8089 72.0179 75.8818C71.9146 75.9546 71.8266 76.0457 71.7567 76.1551C71.6869 76.2644 71.6413 76.3798 71.6201 76.5074C71.5958 76.6349 71.5988 76.7594 71.6261 76.887C71.6535 77.0115 71.7021 77.1269 71.7749 77.2332C71.8478 77.3395 71.9389 77.4275 72.0483 77.4974C72.1546 77.5672 72.273 77.6128 72.4005 77.634C72.5251 77.6583 72.6526 77.6553 72.7771 77.628Z" fill="#508CA2"/>
<path d="M63.2718 78.7062L69.5035 77.3487L68.149 71.0957L61.9143 72.4562L63.2718 78.7062Z" fill="#012C46"/>
<path d="M63.4752 79.6567L69.71 78.2961C69.8345 78.2688 69.9499 78.2202 70.0562 78.1443C70.1625 78.0714 70.2506 77.9803 70.3204 77.874C70.3872 77.7647 70.4358 77.6462 70.4571 77.5217C70.4814 77.3942 70.4783 77.2666 70.451 77.1421L69.0965 70.8892C69.0692 70.7646 69.0176 70.6492 68.9447 70.543C68.8718 70.4367 68.7807 70.3486 68.6714 70.2787C68.5651 70.2119 68.4466 70.1633 68.3221 70.1421C68.1946 70.1178 68.0701 70.1208 67.9425 70.1482L61.7108 71.5056C61.5833 71.533 61.4679 71.5846 61.3646 71.6575C61.2583 71.7304 61.1702 71.8215 61.1004 71.9308C61.0306 72.0401 60.985 72.1555 60.9637 72.2831C60.9394 72.4106 60.9425 72.5352 60.9698 72.6627L62.3243 78.9126C62.3516 79.0402 62.4032 79.1556 62.4761 79.2619C62.549 79.3651 62.6401 79.4532 62.7464 79.523C62.8557 79.5929 62.9711 79.6384 63.0987 79.6627C63.2262 79.684 63.3507 79.684 63.4752 79.6567C63.6028 79.6293 63.7182 79.5777 63.8215 79.5048C63.9277 79.4319 64.0158 79.3408 64.0857 79.2315C64.1555 79.1222 64.2011 79.0068 64.2223 78.8792C64.2466 78.7517 64.2436 78.6272 64.2162 78.4996L62.8618 72.2497L61.9143 72.4562L62.1208 73.4037L68.3555 72.0462L68.149 71.0957L67.2046 71.3022L68.559 77.5551L69.5035 77.3486L69.3 76.3981L63.0653 77.7586C62.9408 77.7859 62.8254 77.8376 62.7191 77.9105C62.6128 77.9833 62.5247 78.0744 62.4579 78.1807C62.388 78.2901 62.3395 78.4085 62.3182 78.5361C62.2939 78.6606 62.2969 78.7881 62.3243 78.9126C62.3516 79.0402 62.4032 79.1556 62.4761 79.2619C62.549 79.3651 62.6401 79.4532 62.7464 79.523C62.8557 79.5929 62.9711 79.6384 63.0987 79.6627C63.2262 79.684 63.3507 79.684 63.4752 79.6567Z" fill="#508CA2"/>
<path d="M53.9697 80.7379L60.2075 79.3773L58.85 73.1244L52.6152 74.4819L53.9697 80.7379Z" fill="#012C46"/>
<path d="M54.1763 81.6853L60.4141 80.3278C60.5386 80.3005 60.654 80.2489 60.7603 80.176C60.8666 80.1031 60.9516 80.012 61.0214 79.9027C61.0913 79.7964 61.1368 79.678 61.1611 79.5504C61.1824 79.4259 61.1824 79.2983 61.1551 79.1738V79.1708L59.7945 72.9178C59.7672 72.7903 59.7156 72.6749 59.6427 72.5686C59.5698 72.4653 59.4787 72.3773 59.3724 72.3074C59.2631 72.2376 59.1477 72.192 59.0201 72.1677C58.8956 72.1465 58.7681 72.1465 58.6436 72.1738L52.4088 73.5343C52.2843 73.5617 52.1689 73.6102 52.0626 73.6862C51.9563 73.7591 51.8713 73.8502 51.8014 73.9564C51.7316 74.0658 51.686 74.1842 51.6617 74.3087C51.6405 74.4363 51.6405 74.5638 51.6678 74.6883L53.0253 80.9443C53.0526 81.0688 53.1012 81.1842 53.1741 81.2905C53.247 81.3968 53.3381 81.4849 53.4474 81.5548C53.5537 81.6246 53.6722 81.6702 53.7967 81.6944C53.9242 81.7157 54.0487 81.7127 54.1763 81.6853C54.3008 81.658 54.4162 81.6094 54.5225 81.5365C54.6288 81.4606 54.7138 81.3725 54.7837 81.2632C54.8535 81.1539 54.8991 81.0385 54.9234 80.9109C54.9446 80.7834 54.9446 80.6589 54.9173 80.5313L53.5598 74.2753L52.6153 74.4818L52.8218 75.4324L59.0535 74.0719L58.8501 73.1243L57.9026 73.3309L59.2631 79.5868L60.2076 79.3773L60.001 78.4298L53.7633 79.7903C53.6388 79.8176 53.5234 79.8662 53.4171 79.9391C53.3138 80.015 53.2257 80.1031 53.1559 80.2124C53.086 80.3218 53.0405 80.4372 53.0162 80.5647C52.9949 80.6923 52.998 80.8168 53.0253 80.9443C53.0526 81.0688 53.1012 81.1842 53.1741 81.2905C53.247 81.3968 53.3381 81.4849 53.4474 81.5548C53.5537 81.6246 53.6722 81.6702 53.7967 81.6944C53.9242 81.7157 54.0487 81.7127 54.1763 81.6853Z" fill="#508CA2"/>
<path d="M83.6583 82.9001L89.896 81.5426L88.5355 75.2866L82.3008 76.6502L83.6583 82.9001Z" fill="#012C46"/>
<path d="M83.8617 83.8476L90.0995 82.4901C90.227 82.4628 90.3424 82.4112 90.4457 82.3383C90.552 82.2654 90.6401 82.1743 90.7099 82.068C90.7767 81.9587 90.8253 81.8402 90.8466 81.7127C90.8709 81.5882 90.8678 81.4606 90.8405 81.3361L89.48 75.0801C89.4526 74.9526 89.404 74.8372 89.3312 74.7309C89.2583 74.6276 89.1672 74.5395 89.0578 74.4697C88.9516 74.3998 88.8331 74.3543 88.7056 74.33C88.5811 74.3087 88.4535 74.3118 88.329 74.3391L82.0943 75.6996C81.9697 75.727 81.8543 75.7786 81.748 75.8515C81.6448 75.9244 81.5567 76.0155 81.4869 76.1248C81.417 76.2341 81.3715 76.3495 81.3502 76.4771C81.3259 76.6046 81.329 76.7291 81.3563 76.8567L82.7107 83.1066C82.7381 83.2311 82.7897 83.3496 82.8626 83.4528C82.9355 83.5591 83.0266 83.6472 83.1329 83.717C83.2422 83.7869 83.3576 83.8324 83.4851 83.8567C83.6097 83.878 83.7372 83.8749 83.8617 83.8476C83.9893 83.8203 84.1047 83.7717 84.2079 83.6988C84.3142 83.6259 84.4023 83.5348 84.4721 83.4255C84.5389 83.3162 84.5875 83.2008 84.6088 83.0732C84.6331 82.9457 84.6301 82.8211 84.6027 82.6936L83.2483 76.4437L82.3008 76.6502L82.5073 77.5977L88.742 76.2341L88.5355 75.2866L87.591 75.4931L88.9485 81.7491L89.896 81.5426L89.6895 80.5921L83.4517 81.9526C83.3272 81.9799 83.2118 82.0285 83.1055 82.1044C82.9992 82.1773 82.9112 82.2684 82.8413 82.3747C82.7745 82.484 82.7259 82.6025 82.7047 82.727C82.6804 82.8545 82.6834 82.9821 82.7107 83.1066C82.7381 83.2311 82.7897 83.3496 82.8626 83.4528C82.9355 83.5591 83.0266 83.6472 83.1329 83.717C83.2422 83.7869 83.3576 83.8324 83.4851 83.8567C83.6097 83.878 83.7372 83.8749 83.8617 83.8476Z" fill="#508CA2"/>
<path d="M74.3564 84.9287L80.5942 83.5682L79.2397 77.3182L73.002 78.6757L74.3564 84.9287Z" fill="#012C46"/>
<path d="M74.5628 85.8761L80.8005 84.5156C80.925 84.4883 81.0404 84.4397 81.1467 84.3668C81.25 84.2909 81.3381 84.2028 81.4079 84.0935C81.4778 83.9842 81.5233 83.8688 81.5476 83.7412C81.5689 83.6137 81.5658 83.4891 81.5385 83.3616L80.184 77.1117C80.1567 76.9841 80.1081 76.8687 80.0352 76.7624C79.9593 76.6561 79.8712 76.5711 79.7619 76.5013C79.6556 76.4314 79.5372 76.3859 79.4096 76.3616C79.2851 76.3373 79.1576 76.3403 79.0331 76.3676L72.7953 77.7282C72.6708 77.7555 72.5554 77.8041 72.4491 77.877C72.3428 77.9529 72.2547 78.044 72.1879 78.1503C72.1181 78.2596 72.0725 78.3781 72.0482 78.5026C72.027 78.6301 72.027 78.7577 72.0543 78.8822L73.4087 85.1321C73.4361 85.2597 73.4877 85.3751 73.5606 85.4814C73.6335 85.5876 73.7246 85.6727 73.8339 85.7425C73.9402 85.8124 74.0586 85.861 74.1831 85.8822C74.3107 85.9065 74.4352 85.9035 74.5628 85.8761C74.6873 85.8488 74.8027 85.7972 74.909 85.7243C75.0122 85.6514 75.1003 85.5603 75.1701 85.451C75.24 85.3447 75.2855 85.2263 75.3098 85.0987C75.3311 84.9742 75.3281 84.8466 75.3007 84.7221L73.9463 78.4692L73.0018 78.6757L73.2053 79.6232L79.443 78.2657L79.2396 77.3182L78.2921 77.5217L79.6496 83.7746L80.594 83.5681L80.3875 82.6206L74.1497 83.9781C74.0252 84.0054 73.9098 84.057 73.8035 84.1299C73.7003 84.2028 73.6122 84.2939 73.5424 84.4033C73.4725 84.5095 73.427 84.628 73.4027 84.7555C73.3814 84.88 73.3814 85.0076 73.4087 85.1321C73.4361 85.2597 73.4877 85.3751 73.5606 85.4814C73.6335 85.5876 73.7246 85.6727 73.8339 85.7425C73.9402 85.8124 74.0586 85.861 74.1831 85.8822C74.3107 85.9065 74.4352 85.9035 74.5628 85.8761Z" fill="#508CA2"/>
<path d="M65.0605 86.9575L71.2922 85.6L69.9377 79.344L63.7 80.7015L65.0605 86.9575Z" fill="#012C46"/>
<path d="M65.264 87.9079L71.4987 86.5474C71.6232 86.52 71.7386 86.4684 71.8449 86.3955C71.9512 86.3226 72.0393 86.2315 72.1091 86.1252C72.1759 86.0159 72.2245 85.8975 72.2458 85.773C72.2701 85.6454 72.267 85.5179 72.2397 85.3933L70.8852 79.1374C70.8579 79.0128 70.8063 78.8974 70.7334 78.7911C70.6605 78.6849 70.5694 78.5968 70.4631 78.5269C70.3538 78.4571 70.2353 78.4115 70.1108 78.3872C69.9833 78.366 69.8588 78.369 69.7343 78.3964L63.4934 79.7538C63.3689 79.7812 63.2535 79.8328 63.1472 79.9057C63.044 79.9786 62.9559 80.0697 62.8861 80.179C62.8162 80.2853 62.7707 80.4037 62.7464 80.5313C62.7251 80.6558 62.7282 80.7833 62.7555 80.9079C62.7555 80.9079 62.7555 80.9079 62.7555 80.9109L64.113 87.1639C64.1403 87.2914 64.1919 87.4068 64.2648 87.5131C64.3377 87.6164 64.4288 87.7044 64.5351 87.7743C64.6444 87.8441 64.7629 87.8897 64.8874 87.914C65.0149 87.9352 65.1394 87.9352 65.267 87.9079C65.3915 87.8806 65.5069 87.8289 65.6132 87.7561C65.7165 87.6832 65.8045 87.5921 65.8744 87.4827C65.9442 87.3734 65.9898 87.258 66.011 87.1305C66.0353 87.0029 66.0323 86.8784 66.005 86.7508L64.6475 80.4948L63.7 80.7014L63.9065 81.6519L70.1442 80.2914L69.9377 79.3439L68.9933 79.5504L70.3477 85.8064L71.2922 85.5999L71.0887 84.6493L64.854 86.0098C64.7295 86.0372 64.6141 86.0858 64.5078 86.1617C64.4015 86.2346 64.3134 86.3257 64.2466 86.432C64.1767 86.5413 64.1312 86.6597 64.1069 86.7842C64.0826 86.9118 64.0856 87.0393 64.113 87.1639C64.1403 87.2914 64.1919 87.4068 64.2648 87.5101C64.3377 87.6164 64.4288 87.7044 64.5351 87.7743C64.6444 87.8441 64.7598 87.8897 64.8874 87.914C65.0149 87.9352 65.1394 87.9352 65.264 87.9079Z" fill="#508CA2"/>
<path d="M53.086 57.7242C53.253 58.4895 52.7702 59.2457 52.0079 59.4127C51.2396 59.5797 50.4864 59.0938 50.3224 58.3255C50.1554 57.5602 50.6413 56.804 51.4036 56.637C52.1658 56.4699 52.922 56.9589 53.086 57.7242Z" fill="#012C46"/>
<path d="M52.1416 57.9307C52.1689 58.0522 52.1477 58.1645 52.0809 58.2678C52.0141 58.3741 51.9199 58.4379 51.8015 58.4652C51.68 58.4925 51.5646 58.4713 51.4613 58.4045C51.3581 58.3376 51.2943 58.2435 51.27 58.1251C51.2427 58.0005 51.2609 57.8851 51.3277 57.7819C51.3945 57.6756 51.4887 57.6118 51.6102 57.5845C51.7286 57.5602 51.841 57.5784 51.9442 57.6483C52.0505 57.7151 52.1143 57.8092 52.1416 57.9307C52.1689 58.0582 52.2206 58.1736 52.2935 58.2769C52.3663 58.3832 52.4574 58.4713 52.5637 58.5411C52.6731 58.611 52.7885 58.6565 52.916 58.6808C53.0436 58.7021 53.1681 58.699 53.2926 58.6717C53.4201 58.6444 53.5355 58.5958 53.6388 58.5199C53.7451 58.447 53.8332 58.3559 53.903 58.2496C53.9698 58.1402 54.0184 58.0218 54.0397 57.8973C54.064 57.7697 54.0609 57.6422 54.0336 57.5177C53.8939 56.8739 53.5477 56.3728 52.9919 56.0144C52.4392 55.6561 51.841 55.5467 51.1971 55.6895C50.5533 55.8292 50.0553 56.1784 49.7 56.7342C49.3446 57.2899 49.2353 57.8882 49.375 58.5259C49.5117 59.1758 49.8579 59.6799 50.4136 60.0383C50.9694 60.3936 51.5676 60.5029 52.2145 60.3602C52.8553 60.2205 53.3564 59.8713 53.7117 59.3155C54.067 58.7628 54.1733 58.1615 54.0336 57.5177C54.0063 57.3901 53.9546 57.2747 53.8818 57.1684C53.8089 57.0652 53.7178 56.9771 53.6115 56.9073C53.5021 56.8374 53.3837 56.7919 53.2592 56.7676C53.1316 56.7463 53.0071 56.7493 52.8796 56.7767C52.7551 56.804 52.6397 56.8526 52.5334 56.9285C52.4301 57.0014 52.342 57.0925 52.2722 57.1988C52.2023 57.3081 52.1568 57.4266 52.1355 57.5511C52.1112 57.6786 52.1143 57.8062 52.1416 57.9307Z" fill="#508CA2"/>
<path d="M67.6175 54.5567C67.7815 55.322 67.2986 56.0782 66.5333 56.2453C65.7711 56.4123 65.0179 55.9264 64.8509 55.158C64.6839 54.3927 65.1667 53.6366 65.9351 53.4726C66.6973 53.3055 67.4535 53.7914 67.6175 54.5567Z" fill="#012C46"/>
<path d="M66.673 54.7573C66.6973 54.8818 66.676 54.9941 66.6092 55.1004C66.5424 55.2037 66.4482 55.2705 66.3268 55.2978C66.2083 55.3221 66.096 55.3039 65.9927 55.2371C65.8895 55.1672 65.8226 55.0731 65.7953 54.9516C65.771 54.8301 65.7892 54.7178 65.856 54.6145C65.9229 54.5113 66.017 54.4475 66.1354 54.4232C66.26 54.3959 66.3723 54.4141 66.4786 54.4809C66.5819 54.5477 66.6456 54.6418 66.673 54.7633C66.7003 54.8878 66.7519 55.0032 66.8248 55.1095C66.8977 55.2158 66.9888 55.3039 67.0951 55.3737C67.2044 55.4436 67.3198 55.4891 67.4474 55.5104C67.5749 55.5347 67.6994 55.5317 67.824 55.5043C67.9515 55.477 68.0669 55.4254 68.1702 55.3525C68.2764 55.2796 68.3645 55.1885 68.4344 55.0792C68.5042 54.9729 68.5498 54.8544 68.571 54.7269C68.5953 54.5993 68.5923 54.4748 68.565 54.3503C68.4253 53.7034 68.076 53.2054 67.5233 52.847C66.9675 52.4917 66.3723 52.3824 65.7346 52.5221C65.0877 52.6618 64.5866 53.008 64.2283 53.5638C63.873 54.1195 63.7636 54.7178 63.9033 55.3646C64.043 56.0085 64.3923 56.5126 64.945 56.8679C65.5007 57.2262 66.099 57.3325 66.7398 57.1928C67.3836 57.0531 67.8817 56.7039 68.237 56.1481C68.5923 55.5954 68.7016 54.9972 68.565 54.3533C68.5376 54.2288 68.489 54.1104 68.4161 54.0041C68.3433 53.9008 68.2522 53.8128 68.1459 53.7399C68.0365 53.67 67.9211 53.6245 67.7936 53.6002C67.6691 53.5789 67.5415 53.5789 67.417 53.6063C67.2925 53.6336 67.1771 53.6822 67.0708 53.7551C66.9645 53.828 66.8764 53.9191 66.8066 54.0284C66.7367 54.1347 66.6912 54.2531 66.6669 54.3807C66.6426 54.5052 66.6456 54.6327 66.673 54.7573Z" fill="#508CA2"/>
<path d="M82.1459 51.3862C82.3129 52.1576 81.824 52.9108 81.0617 53.0778C80.2995 53.2448 79.5433 52.7589 79.3793 51.9906C79.2123 51.2253 79.6982 50.4721 80.4635 50.3051C81.2257 50.1381 81.9789 50.621 82.1459 51.3862Z" fill="#012C46"/>
<path d="M81.2015 51.5929C81.2258 51.7144 81.2075 51.8268 81.1407 51.93C81.0739 52.0363 80.9767 52.1001 80.8553 52.1274C80.7368 52.1548 80.6245 52.1335 80.5212 52.0667C80.4149 51.9999 80.3511 51.9057 80.3238 51.7843C80.2995 51.6628 80.3177 51.5535 80.3845 51.4502C80.4514 51.3439 80.5455 51.2801 80.67 51.2528C80.7884 51.2255 80.9008 51.2467 81.0071 51.3135C81.1104 51.3803 81.1741 51.4745 81.2015 51.596C81.2288 51.7205 81.2774 51.8359 81.3533 51.9422C81.4262 52.0485 81.5173 52.1365 81.6236 52.2033C81.7329 52.2732 81.8483 52.3187 81.9759 52.343C82.1004 52.3643 82.2279 52.3643 82.3524 52.337C82.48 52.3096 82.5954 52.258 82.6987 52.1851C82.8049 52.1122 82.893 52.0211 82.9629 51.9118C83.0297 51.8025 83.0783 51.6871 83.0995 51.5595C83.1208 51.432 83.1208 51.3075 83.0934 51.1799C82.9507 50.5361 82.6045 50.035 82.0518 49.6797C81.496 49.3244 80.8978 49.215 80.257 49.3547C79.6132 49.4975 79.1151 49.8437 78.7598 50.3964C78.4015 50.9521 78.2921 51.5504 78.4318 52.1942C78.5715 52.8411 78.9177 53.3422 79.4735 53.7005C80.0262 54.0589 80.6245 54.1652 81.2683 54.0255C81.9121 53.8858 82.4101 53.5365 82.7655 52.9838C83.1238 52.4281 83.2331 51.8268 83.0934 51.1829C83.0661 51.0554 83.0145 50.94 82.9416 50.8337C82.8687 50.7274 82.7776 50.6393 82.6713 50.5725C82.562 50.5027 82.4466 50.4541 82.319 50.4328C82.1915 50.4085 82.067 50.4116 81.9425 50.4389C81.8149 50.4662 81.6995 50.5179 81.5963 50.5908C81.49 50.6636 81.4019 50.7547 81.3321 50.861C81.2622 50.9704 81.2167 51.0888 81.1954 51.2164C81.1711 51.3409 81.1741 51.4684 81.2015 51.5929Z" fill="#508CA2"/>
<path d="M117.271 67.2418H96.4254C92.6778 67.2418 89.6379 74.0475 89.6379 74.0475H47.6772C46.2924 74.0475 45.1687 75.1742 45.1687 76.5651V112.604C45.1687 113.995 46.2924 115.121 47.6772 115.121H117.289C118.677 115.121 119.797 113.995 119.797 112.604V69.7776C119.797 68.3746 118.668 67.2418 117.271 67.2418Z" fill="#012C46"/>
<path d="M44.2002 86.3349V112.604C44.2002 113.078 44.2913 113.53 44.4735 113.961C44.6497 114.381 44.8987 114.748 45.2206 115.07C45.5395 115.392 45.9069 115.641 46.323 115.817C46.7542 115.999 47.2067 116.09 47.6774 116.09H92.7692C92.8967 116.09 93.0213 116.066 93.1397 116.017C93.2581 115.969 93.3644 115.899 93.4555 115.808C93.5436 115.717 93.6134 115.611 93.6651 115.492C93.7137 115.374 93.738 115.249 93.738 115.122C93.738 114.991 93.7137 114.866 93.6651 114.748C93.6134 114.63 93.5436 114.526 93.4555 114.435C93.3644 114.344 93.2581 114.271 93.1397 114.223C93.0213 114.174 92.8967 114.15 92.7692 114.15H47.6774C47.2523 114.15 46.8878 113.998 46.5872 113.697C46.2865 113.397 46.1377 113.032 46.1377 112.604V86.3349C46.1377 86.2043 46.1134 86.0828 46.0618 85.9613C46.0132 85.8429 45.9434 85.7397 45.8523 85.6485C45.7642 85.5574 45.6579 85.4876 45.5395 85.436C45.421 85.3874 45.2965 85.3631 45.169 85.3631C45.0414 85.3631 44.9169 85.3874 44.7985 85.436C44.68 85.4876 44.5768 85.5574 44.4857 85.6485C44.3946 85.7397 44.3247 85.8429 44.2761 85.9613C44.2245 86.0828 44.2002 86.2043 44.2002 86.3349ZM104.054 116.09H117.289C117.76 116.09 118.212 115.999 118.644 115.817C119.06 115.641 119.427 115.392 119.749 115.07C120.068 114.748 120.317 114.381 120.493 113.961C120.675 113.53 120.766 113.078 120.766 112.604V69.7778C120.766 69.301 120.675 68.8454 120.493 68.4111C120.314 67.9921 120.065 67.6185 119.743 67.2966C119.421 66.9747 119.05 66.7226 118.631 66.5465C118.197 66.3612 117.745 66.2701 117.271 66.2701H96.4256C94.5367 66.2701 92.675 67.5396 90.8438 70.0754C90.3063 70.8194 89.7991 71.6333 89.3223 72.5231C89.0794 72.9695 88.8911 73.3461 88.7544 73.6498L89.6382 74.0476V73.0758H47.6774C47.1004 73.0758 46.5599 73.2125 46.0527 73.4797C45.5638 73.7409 45.1599 74.0962 44.8379 74.5517C44.7651 74.658 44.7134 74.7704 44.6831 74.8979C44.6557 75.0225 44.6527 75.15 44.674 75.2745C44.6952 75.4021 44.7408 75.5205 44.8106 75.6298C44.8774 75.7392 44.9655 75.8303 45.0687 75.9032C45.175 75.9791 45.2904 76.0307 45.415 76.058C45.5395 76.0884 45.664 76.0914 45.7915 76.0702C45.9191 76.0459 46.0345 76.0034 46.1438 75.9335C46.2531 75.8637 46.3442 75.7786 46.4171 75.6724C46.5599 75.4719 46.7421 75.311 46.9577 75.1956C47.1824 75.0771 47.4223 75.0194 47.6774 75.0194H89.6382C89.8295 75.0194 90.0056 74.9678 90.1666 74.8615C90.3245 74.7583 90.446 74.6186 90.5219 74.4455C90.6403 74.1812 90.8074 73.8502 91.026 73.4463C91.4633 72.6324 91.9249 71.8884 92.4108 71.2142C93.0759 70.294 93.7319 69.5804 94.3818 69.0702C95.1106 68.4962 95.7909 68.2107 96.4256 68.2107H117.271C117.702 68.2107 118.07 68.3656 118.373 68.6693C118.677 68.976 118.832 69.3435 118.832 69.7778V112.604C118.832 113.032 118.68 113.397 118.379 113.697C118.079 113.998 117.714 114.15 117.289 114.15H104.054C103.924 114.15 103.802 114.174 103.684 114.223C103.565 114.271 103.459 114.344 103.368 114.435C103.277 114.526 103.207 114.63 103.158 114.748C103.11 114.866 103.086 114.991 103.086 115.122C103.086 115.249 103.11 115.374 103.158 115.492C103.207 115.611 103.277 115.717 103.368 115.808C103.459 115.899 103.565 115.969 103.684 116.017C103.802 116.066 103.924 116.09 104.054 116.09Z" fill="#508CA2"/>
<path d="M51.7041 101.383H88.1438C88.2744 101.383 88.3958 101.358 88.5143 101.31C88.6327 101.261 88.739 101.188 88.8301 101.097C88.9212 101.006 88.9911 100.903 89.0397 100.784C89.0882 100.666 89.1125 100.541 89.1125 100.411C89.1125 100.283 89.0882 100.159 89.0397 100.04C88.9911 99.922 88.9212 99.8157 88.8301 99.7246C88.739 99.6335 88.6327 99.5636 88.5143 99.515C88.3958 99.4664 88.2744 99.4421 88.1438 99.4421H51.7041C51.5766 99.4421 51.4521 99.4664 51.3336 99.515C51.2152 99.5636 51.1119 99.6335 51.0208 99.7246C50.9297 99.8157 50.8599 99.922 50.8113 100.04C50.7627 100.159 50.7354 100.283 50.7354 100.411C50.7354 100.541 50.7627 100.666 50.8113 100.784C50.8599 100.903 50.9297 101.006 51.0208 101.097C51.1119 101.188 51.2152 101.261 51.3336 101.31C51.4521 101.358 51.5766 101.383 51.7041 101.383Z" fill="#508CA2"/>
<path d="M51.7041 109.045H88.1438C88.2744 109.045 88.3958 109.02 88.5143 108.969C88.6327 108.92 88.739 108.85 88.8301 108.759C88.9212 108.668 88.9911 108.562 89.0397 108.443C89.0882 108.325 89.1125 108.2 89.1125 108.073C89.1125 107.945 89.0882 107.821 89.0397 107.702C88.9911 107.584 88.9212 107.478 88.8301 107.387C88.739 107.295 88.6327 107.226 88.5143 107.177C88.3958 107.125 88.2744 107.101 88.1438 107.101H51.7041C51.5766 107.101 51.4521 107.125 51.3336 107.177C51.2152 107.226 51.1119 107.295 51.0208 107.387C50.9297 107.478 50.8599 107.584 50.8113 107.702C50.7627 107.821 50.7354 107.945 50.7354 108.073C50.7354 108.2 50.7627 108.325 50.8113 108.443C50.8599 108.562 50.9297 108.668 51.0208 108.759C51.1119 108.85 51.2152 108.92 51.3336 108.969C51.4521 109.02 51.5766 109.045 51.7041 109.045Z" fill="#508CA2"/>
</svg>
