<svg width="162" height="162" viewBox="0 0 162 162" fill="none" xmlns="http://www.w3.org/2000/svg">
<circle cx="81" cy="81" r="79" stroke="#012C46" stroke-width="4"/>
<circle cx="81" cy="81" r="73.5" stroke="#012C46"/>
<path d="M94.9469 42.0006C93.4103 41.9854 91.9677 42.2709 90.6558 42.8631C87.9864 44.0626 85.9061 46.5043 84.6427 49.9299C84.2965 50.8713 84.1386 51.9859 84.0779 53.1703C84.172 54.3941 84.3998 55.8124 84.6185 57.1395C85.1378 60.2918 85.6297 63.2679 84.8341 65.418L81.1017 75.5461C80.9894 75.8194 80.962 76.0016 81.0805 76.281C81.5239 77.3105 83.428 78.5981 85.815 79.4819C85.8454 79.494 85.8666 79.5153 85.8939 79.5274C89.3621 80.8758 93.1369 80.8485 93.5499 79.8342L97.5192 69.0562C98.3604 66.9092 100.444 65.1478 102.454 63.4471C103.374 62.6666 104.307 61.874 105.048 61.1057C105.767 60.1065 106.384 59.1043 106.751 58.1113C108.015 54.6857 108.024 51.4757 106.776 48.8245C105.549 46.2219 103.131 44.1932 99.7847 42.9542C98.1083 42.3346 96.4836 42.0158 94.9469 42.0006ZM57.9454 52.5021C57.2682 52.5204 56.6335 52.9182 56.342 53.5711L46.2807 76.0472L118.932 102.924L125.887 79.2966C126.157 78.3825 125.671 77.4168 124.775 77.0858L102.081 68.6888C101.54 69.2658 101.118 69.8215 100.911 70.3469L96.933 81.1461C96.0098 83.4116 93.6562 84.2043 91.0445 84.2043C88.8094 84.2043 86.3829 83.6242 84.5122 82.8893C84.4818 82.8771 84.4636 82.8498 84.4362 82.8377C82.3803 82.0632 78.9091 80.4051 77.752 77.7144C77.257 76.5574 77.251 75.3456 77.7338 74.2068L81.4328 64.1577C81.6818 63.4805 81.6605 62.3569 81.5269 61.0844L58.6257 52.6145C58.401 52.5325 58.1702 52.4961 57.9454 52.5021ZM45.6096 79.6702L46.3384 86.2967C46.4144 86.98 46.8669 87.5631 47.5107 87.803L110.356 111.05C110.563 111.126 110.775 111.166 110.988 111.166C111.44 111.166 111.884 110.993 112.227 110.671L117.083 106.115L45.6096 79.6702ZM37 93.6065V97.2386H40.626V93.6065H37ZM44.2521 93.6065V97.2386H47.8812V93.6065H44.2521ZM51.5072 93.6065V97.2386H55.1333V93.6065H51.5072ZM37 100.868V104.5H40.626V100.868H37ZM37 108.129V111.761H40.626V108.129H37ZM37 115.39V119.022H40.626V115.39H37ZM44.2521 115.39V119.022H47.8812V115.39H44.2521ZM51.5072 115.39V119.022H55.1333V115.39H51.5072ZM58.7593 115.39V119.022H62.3884V115.39H58.7593ZM66.0145 115.39V119.022H69.6405V115.39H66.0145ZM73.2666 115.39V119.022H76.8956V115.39H73.2666ZM80.5217 115.39V119.022H84.1477V115.39H80.5217ZM87.7738 115.39V119.022H91.4029V115.39H87.7738ZM95.0289 115.39V119.022H98.655V115.39H95.0289ZM102.281 115.39V119.022H105.91V115.39H102.281Z" fill="#012C46"/>
</svg>
