<svg width="162" height="162" viewBox="0 0 162 162" fill="none" xmlns="http://www.w3.org/2000/svg">
<circle cx="81" cy="81" r="79" stroke="#012C46" stroke-width="4"/>
<circle cx="81" cy="81" r="73.5" stroke="#012C46"/>
<path fill-rule="evenodd" clip-rule="evenodd" d="M75.6232 62.1498C74.9915 62.1498 74.4418 61.6123 74.4418 60.9806C74.4418 60.352 74.9915 59.8114 75.6232 59.8114H86.1825C86.8141 59.8114 87.3547 60.352 87.3547 60.9806C87.3547 61.6123 86.8141 62.1498 86.1825 62.1498H75.6232ZM75.6232 54.1324H86.1825C86.8141 54.1324 87.3547 54.679 87.3547 55.3107C87.3547 55.9394 86.8141 56.4799 86.1825 56.4799H75.6232C74.9915 56.4799 74.4418 55.9394 74.4418 55.3107C74.4418 54.679 74.9915 54.1324 75.6232 54.1324ZM84.1963 67.5555H87.0905C90.1547 67.5555 92.6814 65.0348 92.6814 61.9767V54.5879C92.6814 51.5207 90.1547 49.0001 87.0905 49.0001H74.6241C71.5568 49.0001 69.024 51.5207 69.024 54.5879V61.9767C69.024 65.0348 71.5568 67.5555 74.6241 67.5555H76.5191C76.5191 68.5516 76.3369 69.9941 75.7963 71.4275C75.529 72.0592 75.7052 72.7789 76.2549 73.1433C76.5191 73.4106 76.8835 73.5017 77.2419 73.5017C77.5152 73.5017 77.7824 73.4106 77.9646 73.3256C80.6735 71.7919 82.933 69.0891 84.1963 67.5555ZM105.048 61.8857C110.137 61.8857 114.261 66.0007 114.261 71.0723C114.261 76.1439 110.137 80.2589 105.048 80.2589C99.9638 80.2589 95.8397 76.1439 95.8397 71.0723C95.8397 66.0007 99.9638 61.8857 105.048 61.8857ZM65.8657 71.0723C65.8657 66.0007 61.7507 61.8857 56.6578 61.8857C51.5771 61.8857 47.4499 66.0007 47.4499 71.0723C47.4499 76.1439 51.5771 80.2589 56.6578 80.2589C61.7507 80.2589 65.8657 76.1439 65.8657 71.0723ZM76.3368 96.3847C76.519 95.4828 76.7923 94.6689 77.3329 94.0403C75.6231 94.0403 73.9923 93.773 73.0053 93.3175C71.8835 92.807 70.7699 90.1852 70.1976 88.8378L70.1112 88.6346C70.0402 88.4705 69.9759 88.3127 69.9148 88.1627L69.9148 88.1627C69.7409 87.7356 69.5929 87.3723 69.3884 87.107C68.4834 85.3912 66.5884 83.317 62.7983 83.317H51.0668C48.0816 83.317 45.7401 84.8506 44.1124 87.8298L43.7449 88.5496C43.6404 88.7464 43.5355 88.9438 43.4304 89.1413C41.9994 91.8322 40.5496 94.5584 40.046 96.652C39.6255 98.2126 38.9264 101.688 38.4782 103.917L38.4782 103.917L38.4782 103.917C38.2531 105.036 38.0913 105.84 38.0598 105.93C37.7045 107.828 38.9679 109.717 40.8629 110.075C41.1271 110.166 41.3093 110.166 41.5857 110.166C43.2043 110.166 44.741 108.997 45.0173 107.281C45.0173 107.19 46.3718 100.53 46.9124 98.4589C47.0946 97.5539 47.7263 96.2936 48.3579 95.0333L47.8994 110.348C47.8994 111.609 48.8985 112.687 50.1618 112.687H63.2478C64.5112 112.687 65.5073 111.609 65.5073 110.348L65.0608 94.5778C66.1389 96.652 67.6786 98.8143 70.0201 99.8923C72.2826 100.888 75.1646 101.244 77.7004 101.244C76.519 99.8104 75.9785 98.0945 76.3368 96.3847ZM123.224 103.788C123.453 104.928 123.619 105.752 123.652 105.845C124.01 107.737 122.832 109.534 120.943 109.893C120.669 109.984 120.487 109.984 120.22 109.984C118.592 109.984 117.147 108.815 116.788 107.105C116.788 107.014 115.434 100.439 114.887 98.2767C114.711 97.4628 114.079 96.1114 113.448 94.8511L113.897 110.166C113.897 111.426 112.907 112.505 111.638 112.505H98.5486C97.2853 112.505 96.2892 111.426 96.2892 110.166L96.7447 94.4047C95.6575 96.4758 94.1269 98.632 91.7764 99.7192C87.3546 101.79 82.0279 100.98 81.4874 100.888C79.5924 100.615 78.2379 98.7231 78.5963 96.8342C78.9637 94.9422 80.7646 93.5908 82.6596 93.9492C83.6496 94.0403 86.723 94.3136 88.8002 93.3175C89.9129 92.8073 91.0256 90.1875 91.598 88.8396C91.6287 88.7675 91.6578 88.6989 91.6853 88.6346C91.9166 88.0999 92.1479 87.6327 92.3204 87.2845C92.3516 87.2213 92.381 87.1621 92.408 87.107C93.313 85.3912 95.208 83.317 99.0042 83.317H110.648C113.63 83.317 115.974 84.8506 117.596 87.8298L117.96 88.5496C119.497 91.3374 121.119 94.3136 121.665 96.567C122.083 98.1143 122.775 101.557 123.224 103.788Z" fill="#012C46"/>
</svg>
