<svg width="162" height="162" viewBox="0 0 162 162" fill="none" xmlns="http://www.w3.org/2000/svg">
<circle cx="81" cy="81" r="79" stroke="#012C46" stroke-width="4"/>
<circle cx="81" cy="81" r="73.5" stroke="#012C46"/>
<path fill-rule="evenodd" clip-rule="evenodd" d="M50.0262 72.1063L50.0991 75.128C47.369 76.2912 45.6349 77.0322 45.6349 77.0322L45.2887 74.2565C45.2887 74.2565 47.129 73.4152 50.0262 72.1063ZM58.7725 68.1766L58.8514 71.3987C56.6953 72.3159 54.6575 73.1844 52.8505 73.9558L52.7746 70.8673C54.5816 70.0534 56.6133 69.1393 58.7725 68.1766ZM67.5248 64.3046L67.6068 67.6755C65.6116 68.5228 63.5829 69.3853 61.5998 70.2295L61.5239 66.9527C63.4918 66.0781 65.5144 65.1853 67.5248 64.3046ZM76.3014 60.5145L76.3834 63.9584C75.8154 64.1987 75.2277 64.4472 74.6233 64.7027L74.6028 64.7114L74.5972 64.7137L74.5899 64.7168C73.2489 65.2837 71.8263 65.8851 70.3552 66.5094L70.2732 63.1202H70.2367C72.3474 62.203 74.4003 61.3193 76.3014 60.5145ZM83.4685 57.5991C83.9999 57.3987 84.5284 57.2165 85.0507 57.0434L85.1297 60.4052C84.7683 60.5115 84.4372 60.6208 84.1639 60.7241C83.6112 60.9306 81.7466 61.705 79.1348 62.8013L79.0528 59.3666C80.7383 58.6711 82.2385 58.0668 83.4685 57.5991ZM37.8787 84.8582C41.8236 83.4916 46.6523 82.0248 51.818 80.5489C57.9274 78.8015 64.4839 77.0413 70.4951 75.4276C76.9473 73.6955 82.7711 72.1321 86.7392 70.9341C90.754 69.7163 93.1015 67.6664 95.5067 65.4586L95.7764 65.2109C97.6392 63.4996 99.58 61.7166 102.297 60.3232L101.981 57.9969C96.3388 58.2703 91.3431 58.9718 87.8932 59.7098L87.8082 56.2143C94.3861 54.465 101.523 54.6473 101.523 54.6473C103.381 54.6837 105.82 54.7596 107.928 54.9236L107.618 50.8785C107.618 50.8785 103.967 50.2681 98.3735 50.0251C97.9757 49.9704 95.8377 50.0221 95.8377 50.0221C87.9297 50.4229 83.6659 51.5891 76.5261 54.4772C73.7322 55.61 70.6832 56.9462 67.5734 58.3705C67.5533 58.3858 67.5345 58.402 67.5158 58.418C67.475 58.453 67.4351 58.4873 67.3851 58.5102L54.0805 64.8542V64.8937C46.136 68.9206 39.8101 72.4495 39.0418 73.2178C36.3876 75.8691 36.9585 79.1125 36.9585 79.1125L37.8787 84.8582ZM65.0465 57.0646C64.8856 55.449 64.6942 54.2494 64.4756 54.0307C62.7081 52.2572 54.5267 53.3474 54.1198 57.1618C53.9801 58.4525 53.9679 60.3809 54.0044 62.3275L65.0465 57.0646ZM118.393 69.0543C118.393 67.9762 117.518 67.1016 116.443 67.1016C115.365 67.1016 114.49 67.9762 114.49 69.0543C114.49 70.1324 115.365 71.004 116.443 71.004C117.518 71.004 118.393 70.1324 118.393 69.0543ZM33.2617 100.444C32.5463 99.9879 31.831 99.5315 30.9848 99.159L30.9508 99.0291C30.9076 98.8639 30.8648 98.7001 30.8238 98.5364C30.1102 95.7516 29.4846 93.0214 29.3206 91.5394C29.3236 91.4969 29.4633 91.2691 29.7974 91.008C30.4139 90.5038 31.5952 89.86 33.1714 89.1798C38.7046 86.7745 49.112 83.7316 59.653 80.8405C63.3756 79.819 67.1171 78.8145 70.6748 77.8594L70.6751 77.8593C77.1973 76.1083 83.1019 74.5232 87.14 73.3029C91.4432 72.0061 94.0367 69.7406 96.445 67.5237L96.7546 67.239C99.0605 65.1172 101.277 63.0779 104.885 61.7232C108.009 60.551 112.474 59.2967 116.78 58.3432C121.08 57.3865 125.256 56.7306 127.725 56.7336C128.493 56.7306 129.098 56.8035 129.423 56.9067C129.532 56.9401 129.593 56.9735 129.629 56.9948C129.617 65.0547 127.725 77.5758 125.824 88.0591C124.87 93.3221 123.917 98.0748 123.2 101.513C123.165 101.692 123.129 101.859 123.094 102.025L123.094 102.025L123.063 102.169C122.186 102.421 121.162 102.575 119.893 102.575C116.561 102.575 114.896 101.509 113.23 100.442C111.564 99.3754 109.898 98.3086 106.567 98.3086C103.237 98.3086 101.572 99.3754 99.907 100.442C98.2421 101.509 96.5771 102.575 93.2471 102.575C89.9153 102.575 88.2496 101.509 86.584 100.442C84.9188 99.3751 83.2539 98.3086 79.9243 98.3086C76.5909 98.3086 74.9244 99.3756 73.2581 100.442C71.5922 101.509 69.9265 102.575 66.5954 102.575C63.2662 102.575 61.6012 101.509 59.9359 100.443C58.2697 99.3758 56.6032 98.3086 53.2695 98.3086C49.9365 98.3086 48.27 99.3754 46.6035 100.442C44.937 101.509 43.2705 102.575 39.9375 102.575C36.6018 102.575 34.9315 101.51 33.2617 100.444ZM131.479 101.953C130.586 102.101 129.721 102.628 128.694 103.253C126.757 104.432 124.245 105.962 119.893 105.962C116.561 105.962 114.896 104.894 113.23 103.827C111.564 102.759 109.898 101.692 106.567 101.692C103.237 101.692 101.572 102.759 99.9071 103.827C98.2421 104.894 96.5771 105.962 93.2472 105.962C89.9153 105.962 88.2496 104.894 86.5841 103.826C84.9189 102.759 83.2539 101.692 79.9244 101.692C76.591 101.692 74.9245 102.759 73.2582 103.827C71.5923 104.894 69.9265 105.962 66.5954 105.962C63.2662 105.962 61.6013 104.895 59.9359 103.827C58.2698 102.76 56.6033 101.692 53.2696 101.692C49.9366 101.692 48.2701 102.759 46.6036 103.827C44.9371 104.894 43.2706 105.962 39.9376 105.962C36.605 105.962 34.9385 104.894 33.2718 103.827C31.6048 102.759 29.9375 101.692 26.6026 101.692C26.6026 101.692 24 102.387 24 104.209C24 105.703 24.8552 106.262 25.6754 106.798L25.6755 106.798C25.8557 106.916 26.0343 107.033 26.2017 107.158C27.125 107.854 33.3901 111.786 39.9376 111.786C43.2706 111.786 44.9371 110.719 46.6036 109.651C48.2701 108.584 49.9366 107.516 53.2696 107.516C56.6033 107.516 58.2698 108.584 59.9359 109.652C61.6013 110.719 63.2662 111.786 66.5954 111.786C69.9265 111.786 71.5923 110.719 73.2582 109.652C74.9245 108.584 76.591 107.516 79.9244 107.516C83.2539 107.516 84.9189 108.584 86.5841 109.651C88.2496 110.719 89.9153 111.786 93.2472 111.786C96.5771 111.786 98.2421 110.719 99.9071 109.651C101.572 108.584 103.237 107.516 106.567 107.516C109.898 107.516 111.564 108.584 113.23 109.651C114.896 110.719 116.561 111.786 119.893 111.786C125.74 111.786 130.606 109.064 132.804 107.834L132.804 107.834C133.11 107.663 133.364 107.521 133.562 107.419C135.414 106.463 136.456 105.251 135.876 103.775C135.171 101.977 133.562 101.604 131.479 101.953ZM127.81 100.113L125.356 101.303C126.049 97.9473 126.923 93.5529 127.798 88.7121C129.669 78.3897 131.533 66.1449 131.618 57.8907C132.669 58.823 134.837 60.9336 137.528 64.6022C135.794 87.8526 127.81 100.113 127.81 100.113Z" fill="#012C46"/>
</svg>
