<svg width="162" height="162" viewBox="0 0 162 162" fill="none" xmlns="http://www.w3.org/2000/svg">
<circle cx="81" cy="81" r="79" stroke="#012C46" stroke-width="4"/>
<circle cx="81" cy="81" r="73.5" stroke="#012C46"/>
<path fill-rule="evenodd" clip-rule="evenodd" d="M96.9562 72.2005C100.26 72.3021 103.417 71.1696 105.883 69.0007C102.047 65.159 98.2111 61.3157 94.3777 57.4746C93.6975 56.7944 94.7482 55.7406 95.4285 56.4208C97.6944 58.6897 99.9603 60.9594 102.226 63.2291C103.796 64.8012 105.365 66.3734 106.935 67.9453C110.97 63.3172 111.276 56.0982 107.169 51.3401C102.933 46.4385 95.5197 45.324 90.1748 49.1262C89.7785 49.4078 89.403 49.7101 89.0485 50.0306L90.3704 51.3542L90.3807 51.3645L90.3958 51.3797C90.9567 51.9413 91.5178 52.503 92.0788 53.065C92.7591 53.7453 91.7053 54.7991 91.0281 54.1188C90.1734 53.2626 89.3187 52.4072 88.464 51.5518L88.0062 51.0935C84.0181 55.6788 83.6126 62.8821 87.7635 67.6907C90.0776 70.3692 93.3939 72.0942 96.9562 72.2005ZM102.571 72.7501C104.182 72.1291 105.652 71.2064 106.938 70.0573L107.968 71.089C108.648 71.7693 109.699 70.7155 109.022 70.0352L107.99 69.0021C112.566 63.8382 112.78 56.0885 108.496 50.6203C104.066 44.9626 95.7475 43.766 89.7739 47.6016C89.1326 48.0128 88.5364 48.4702 87.9868 48.9669C87.6419 48.6212 87.2972 48.2755 86.9526 47.9297C86.2723 47.2494 85.2215 48.3032 85.8988 48.9835L86.9379 50.0241C84.112 53.2008 82.886 57.5515 83.5211 61.7449C76.3717 67.7394 69.5712 74.2826 63.3469 81.2352C59.9668 85.0101 56.7113 88.9793 54.0905 93.3342C53.9204 93.6197 53.975 94.0023 54.2089 94.2392C55.4568 95.4897 56.7052 96.7402 57.954 97.9909C56.7932 99.1653 55.6343 100.338 54.473 101.516C54.3816 101.608 54.2895 101.699 54.1975 101.791L54.1974 101.791C53.7117 102.275 53.224 102.761 52.8027 103.304C51.7338 104.674 51.1598 106.308 51.0231 108.036C50.7498 111.559 52.9181 114.957 56.1038 116.375C59.326 117.812 63.0978 117.046 65.6063 114.602C69.156 111.143 72.6436 107.617 76.1294 104.093C77.8714 102.331 79.613 100.571 81.3617 98.819L86.6945 93.4771C86.8225 93.349 86.9496 93.2196 87.0768 93.0901L87.077 93.0899L87.0772 93.0897L87.0773 93.0896C87.6947 92.461 88.3134 91.8311 89.0511 91.3452C90.4906 90.4007 92.2884 90.0514 93.98 90.3157C97.606 90.8836 100.096 94.2029 99.908 97.8137C99.8199 99.5083 99.0242 101.103 97.8581 102.308C97.1869 102.995 98.2407 104.052 98.9088 103.362C101.35 100.851 102.116 97.0697 100.682 93.8415C99.2368 90.589 95.8962 88.5725 92.3552 88.7547C90.6485 88.8458 88.9752 89.4866 87.6298 90.5373C87.0079 91.0216 86.4509 91.5931 85.8993 92.159L85.8993 92.159C85.7453 92.317 85.5917 92.4746 85.4372 92.6298C84.766 93.3009 84.0918 93.9751 83.4237 94.6463L66.0983 112.002C65.9203 112.18 65.7433 112.36 65.5662 112.54L65.5661 112.54L65.566 112.54L65.5658 112.54L65.5657 112.54L65.5656 112.54L65.5655 112.54L65.5652 112.541L65.5651 112.541C65.129 112.984 64.692 113.428 64.2366 113.849C61.5672 116.311 57.3308 116.108 54.7221 113.7C52.0709 111.255 51.7854 107.016 53.9871 104.188C54.814 103.125 55.8182 102.166 56.8093 101.219L56.8094 101.219L56.8095 101.219L56.8096 101.219L56.8097 101.219L56.8098 101.219L56.8099 101.219L56.81 101.219C57.2456 100.803 57.6786 100.389 58.093 99.9699C58.2383 99.8227 58.3835 99.6758 58.5287 99.5289L58.5316 99.526C58.6901 99.3657 58.8485 99.2055 59.0066 99.0451C60.3398 100.38 61.6733 101.716 63.0068 103.052C63.2224 103.268 63.6475 103.368 63.9087 103.168C72.081 96.9542 79.8949 90.1333 87.1379 82.86C90.0533 79.9324 92.8655 76.8925 95.456 73.6734C95.4943 73.6259 95.5259 73.577 95.5513 73.5275C97.8795 73.8555 100.299 73.6218 102.571 72.7501ZM83.659 63.5771C82.605 64.479 81.5667 65.3994 80.5357 66.3271C80.201 66.6266 79.867 66.9268 79.5337 67.2279C79.9165 68.4916 80.6025 69.679 81.3586 70.7793C83.5021 73.902 86.6346 76.1824 90.1185 77.6033C91.3324 76.2741 92.5159 74.9179 93.6619 73.5305C90.3337 72.3704 87.4594 70.203 85.5041 67.2261C84.7723 66.1142 84.0974 64.8684 83.659 63.5771ZM106.082 59.3635C106.395 59.6733 106.896 59.6733 107.206 59.3635C107.515 59.0507 107.515 58.5497 107.206 58.2369C106.896 57.9271 106.392 57.9271 106.082 58.2369C105.772 58.5497 105.772 59.0507 106.082 59.3635ZM107.731 63.4299C107.421 63.7397 106.92 63.7397 106.61 63.4299C106.297 63.1171 106.297 62.616 106.61 62.3032C106.92 61.9935 107.421 61.9904 107.731 62.3032C108.044 62.616 108.044 63.1171 107.731 63.4299ZM104.318 62.2578C104.627 62.5676 105.128 62.5676 105.441 62.2578C105.751 61.948 105.751 61.4439 105.441 61.1311C105.128 60.8214 104.627 60.8214 104.318 61.1311C104.008 61.4439 104.008 61.948 104.318 62.2578Z" fill="#012C46"/>
</svg>
