<svg width="162" height="162" viewBox="0 0 162 162" fill="none" xmlns="http://www.w3.org/2000/svg">
<circle cx="81" cy="81" r="79" stroke="#012C46" stroke-width="4"/>
<circle cx="81" cy="81" r="73.5" stroke="#012C46"/>
<path fill-rule="evenodd" clip-rule="evenodd" d="M71.3462 56.4312L53.8871 73.8501H47.2534C42.1544 73.8501 38 77.9924 38 83.0822V105.239C38 110.326 42.1544 114.472 47.2534 114.472H113.874C118.973 114.472 123.127 110.326 123.127 105.239V83.0822C123.127 77.9924 118.973 73.8501 113.874 73.8501H107.237L89.7812 56.4346C89.3745 51.7166 85.3947 48 80.562 48C75.7334 48 71.7545 51.7148 71.3462 56.4312ZM89.0433 60.9219L102.001 73.8501H59.1221L72.082 60.9179C73.5113 64.1781 76.7754 66.4643 80.562 66.4643C84.3494 66.4643 87.6129 64.18 89.0433 60.9219ZM86.1159 57.3128C86.1136 57.2591 86.1136 57.2053 86.1159 57.1516C86.0725 54.1335 83.5962 51.6929 80.562 51.6929C77.5039 51.6929 75.0106 54.177 75.0106 57.2321C75.0106 60.2842 77.5039 62.7714 80.562 62.7714C83.5962 62.7714 86.0725 60.3279 86.1159 57.3128ZM47.2534 77.543C44.1922 77.543 41.7019 80.0271 41.7019 83.0822V105.239C41.7019 108.291 44.1922 110.779 47.2534 110.779H113.874C116.935 110.779 119.425 108.291 119.425 105.239V83.0822C119.425 80.0271 116.935 77.543 113.874 77.543H47.2534ZM45.4039 101.546C45.4039 102.564 46.2329 103.393 47.2533 103.393C48.2737 103.393 49.1028 102.564 49.1028 101.546V96.0071H52.8048V101.546C52.8048 102.564 53.6338 103.393 54.6542 103.393C55.6777 103.393 56.5067 102.564 56.5067 101.546V94.1683L56.5067 94.1607L56.5067 94.1531V86.7749C56.5067 85.7546 55.6777 84.9285 54.6542 84.9285C53.6338 84.9285 52.8048 85.7546 52.8048 86.7749V92.3143H49.1028V86.7749C49.1028 85.7546 48.2737 84.9285 47.2533 84.9285C46.2329 84.9285 45.4039 85.7546 45.4039 86.7749V94.1607V101.546ZM65.7601 103.393C62.6989 103.393 60.2087 100.906 60.2087 97.8535V90.4678C60.2087 87.4127 62.6989 84.9285 65.7601 84.9285C68.8183 84.9285 71.3116 87.4127 71.3116 90.4678V97.8535C71.3116 100.906 68.8183 103.393 65.7601 103.393ZM65.7601 88.6214C64.7367 88.6214 63.9076 89.4474 63.9076 90.4678V97.8535C63.9076 98.8709 64.7367 99.7 65.7601 99.7C66.7805 99.7 67.6096 98.8709 67.6096 97.8535V90.4678C67.6096 89.4474 66.7805 88.6214 65.7601 88.6214ZM75.0106 88.6214H78.7125V101.546C78.7125 102.564 79.5416 103.393 80.562 103.393C81.5854 103.393 82.4145 102.564 82.4145 101.546V88.6214H86.1165C87.1369 88.6214 87.9659 87.7923 87.9659 86.7749C87.9659 85.7546 87.1369 84.9285 86.1165 84.9285H80.562H75.0106C73.9902 84.9285 73.1611 85.7546 73.1611 86.7749C73.1611 87.7923 73.9902 88.6214 75.0106 88.6214ZM91.6679 103.393H99.0688C100.089 103.393 100.918 102.564 100.918 101.546C100.918 100.526 100.089 99.7 99.0688 99.7H93.5173V96.0071H95.3668C96.3902 96.0071 97.2193 95.1781 97.2193 94.1607C97.2193 93.1403 96.3902 92.3143 95.3668 92.3143H93.5173V88.6214H99.0688C100.089 88.6214 100.918 87.7923 100.918 86.7749C100.918 85.7546 100.089 84.9285 99.0688 84.9285H91.6679C90.6444 84.9285 89.8154 85.7546 89.8154 86.7749V94.1607V101.546C89.8154 102.564 90.6444 103.393 91.6679 103.393ZM106.47 103.393H113.874C114.894 103.393 115.723 102.564 115.723 101.546C115.723 100.526 114.894 99.7 113.874 99.7H108.322V86.7749C108.322 85.7546 107.493 84.9285 106.47 84.9285C105.449 84.9285 104.62 85.7546 104.62 86.7749V101.546C104.62 102.564 105.449 103.393 106.47 103.393Z" fill="#012C46"/>
</svg>
