<svg width="162" height="162" viewBox="0 0 162 162" fill="none" xmlns="http://www.w3.org/2000/svg">
<circle cx="81" cy="81" r="79" stroke="#012C46" stroke-width="4"/>
<circle cx="81" cy="81" r="73.5" stroke="#012C46"/>
<path fill-rule="evenodd" clip-rule="evenodd" d="M116.193 80.6163C116.626 81.8455 116.883 82.5781 116.883 82.5781C117.144 83.0184 117.332 85.0531 117.332 85.5998V101.003V102.075V110.354C117.332 111.945 116.044 113.232 114.456 113.232H103.924C102.336 113.232 101.051 111.945 101.051 110.354V105.078H60.3509V110.354C60.3509 111.945 59.0633 113.232 57.478 113.232H46.943C45.3578 113.232 44.0701 111.945 44.0701 110.354V102.075V101.003V85.5998C44.0701 85.0531 44.2584 83.0184 44.5196 82.5781C44.5196 82.5781 44.7714 81.8448 45.1955 80.6163H41.9382C40.441 80.6163 39.6423 79.4015 40.1555 77.8983L41.0879 75.1802C41.6011 73.677 43.2319 72.4622 44.7291 72.4622H48.0286C50.5828 65.161 53.7197 56.3452 54.4654 54.9181C56.0537 51.8842 60.0502 50.5237 62.9231 49.561C62.9231 49.561 67.026 48 80.7011 48C94.3762 48 98.4791 49.561 98.4791 49.561C100.933 50.2443 105.397 51.6564 106.794 54.7784C107.691 56.7876 110.781 65.3611 113.307 72.4622H116.676C118.173 72.4622 119.804 73.677 120.317 75.1802L121.247 77.8983C121.76 79.4015 120.961 80.6163 119.464 80.6163H116.193ZM58.8105 59.2062C57.9256 61.3885 56.0063 66.1214 54.2225 73.5585C54.2225 73.5585 63.0173 76.5347 80.6981 76.5347C98.3758 76.5347 107.11 73.5555 107.11 73.5555C105.539 67.1735 103.663 62.2762 102.605 59.5143C102.302 58.7211 102.065 58.1041 101.923 57.6786C101.921 57.6769 101.919 57.6701 101.914 57.6585C101.808 57.3657 100.602 54.0374 80.7011 54.0374C60.7766 54.0374 59.6756 56.9623 59.2524 58.0865C59.2363 58.1294 59.2212 58.1697 59.206 58.207C59.121 58.4404 58.9861 58.7731 58.8105 59.2062ZM51.632 84.0479C49.822 84.0479 48.1396 84.1542 48.1396 87.0545V90.0579C48.1396 92.5391 52.0359 93.0645 55.9353 93.0645H60.2902C63.573 93.0645 64.5479 92.2658 64.5479 90.5287C64.5479 88.8924 62.4057 87.9671 60.1902 87.0101C59.8646 86.8695 59.5374 86.7281 59.2151 86.5837C56.9071 85.5482 53.4025 84.0479 51.632 84.0479ZM105.467 93.0645C109.366 93.0645 113.26 92.5421 113.26 90.0579H113.257V87.0545C113.257 84.1542 111.577 84.0479 109.764 84.0479C107.994 84.0479 104.489 85.5542 102.181 86.5837C101.858 86.7285 101.53 86.8702 101.203 87.0112C98.9894 87.9672 96.8513 88.8904 96.8513 90.5287C96.8513 92.2658 97.8261 93.0645 101.109 93.0645H105.467Z" fill="#012C46"/>
</svg>
