<svg width="164" height="98" viewBox="0 0 164 98" fill="none" xmlns="http://www.w3.org/2000/svg">
<path d="M0 97.9068L0.0496941 97.8105C0.195671 97.8105 0.257789 97.7018 0.338542 97.6211C1.29826 96.6893 2.24866 95.7575 3.21459 94.8444C5.07812 93.0803 6.96236 91.341 8.8673 89.6265C10.6977 87.9908 12.5519 86.3829 14.4299 84.8031C16.7904 82.8112 19.213 80.8824 21.6977 79.0168C24.493 76.8986 27.3628 74.8643 30.301 72.9386C33.3572 70.9322 36.4869 69.049 39.6901 67.289C41.3052 66.4038 42.942 65.5684 44.585 64.7453L45.0291 64.5372C50.6606 61.7917 56.5169 59.5337 62.5339 57.7881C63.4408 57.5272 64.3508 57.2819 65.2609 57.0272C66.32 56.7756 67.376 56.5147 68.4351 56.2724C70.5802 55.7838 72.7388 55.3697 74.9108 55.0301C76.441 54.7878 77.9764 54.5808 79.5169 54.4089C80.5418 54.2909 81.573 54.207 82.601 54.117C84.154 53.9803 85.7069 53.8902 87.2785 53.8374C87.7723 53.8219 88.2662 53.8033 88.76 53.7908C90.5086 53.7505 92.2603 53.7194 94.0089 53.7474C95.0005 53.7626 95.9872 53.6061 96.9254 53.2846C99.1945 52.5281 101.333 51.4248 103.264 50.0141C103.6 49.7687 103.914 49.4892 104.237 49.2252L104.252 49.2438C104.185 49.5109 104.081 49.7672 103.942 50.0048C103.165 51.6399 102.075 53.1067 100.733 54.3219C100.656 54.3903 100.534 54.4338 100.541 54.5704C100.469 54.5704 100.426 54.6356 100.376 54.676C99.7175 55.2483 99.0086 55.7598 98.2578 56.2041C96.113 57.4875 93.6691 58.1857 91.1701 58.2291C89.8719 58.2509 88.5736 58.3006 87.2785 58.4062C85.5112 58.5491 83.7564 58.7851 82.014 59.0988C78.7361 59.6965 75.5081 60.5417 72.3578 61.627C64.8097 64.2117 57.6908 67.9114 51.2378 72.6032C43.9793 77.8552 37.7458 84.095 32.941 91.7075C32.0023 93.1783 30.7998 94.463 29.3941 95.4967C27.6758 96.8138 25.6401 97.6538 23.4929 97.9317C23.2054 97.9171 22.9172 97.9401 22.6357 98H0.0217411L0 97.9068Z" fill="#EAB281"/>
<path fill-rule="evenodd" clip-rule="evenodd" d="M137.389 97.9938H163.168C163.168 97.8635 163.085 97.782 163.003 97.701C162.974 97.6719 162.945 97.6429 162.919 97.6118L158.26 92.0771L148.601 80.6008L138.56 68.6711L134.211 63.4905C134.12 63.4101 134.05 63.3089 134.006 63.1954C134.085 63.1025 134.187 63.0326 134.302 62.9936C136.633 61.7312 138.861 60.2855 140.964 58.6702C143.133 57.0208 145.058 55.0727 146.682 52.8839C148.487 50.3861 149.756 47.5414 150.409 44.5291C150.748 42.98 150.974 41.4085 151.086 39.8268C151.306 36.9569 151.278 34.084 151.235 31.211C151.225 30.5853 151.223 29.9595 151.222 29.3339C151.22 28.4505 151.219 27.5676 151.191 26.6858C151.127 23.1782 150.448 19.7091 149.185 16.4363C147.343 11.752 144.027 7.79443 139.737 5.16198C136.852 3.38929 133.701 2.09208 130.404 1.32C128.502 0.855088 126.571 0.520941 124.624 0.319906C123.363 0.186353 122.102 0.0900748 120.834 0.0528042C120.736 0.0650559 120.636 0.0466115 120.549 0H62.273C52.6509 0.307483 44.0601 3.4258 36.6059 9.53818C30.7533 14.2877 26.3714 20.603 23.9712 27.748L12.8801 60.1672C9.91292 68.8492 6.94266 77.5322 3.96929 86.2163C2.68552 89.962 1.40383 93.7097 0.124204 97.4596C0.114791 97.4878 0.102801 97.5156 0.0907885 97.5435C0.0552394 97.6261 0.0194839 97.7092 0.0496624 97.8043C0.164737 97.8141 0.227699 97.7409 0.288759 97.6699C0.305155 97.6509 0.321415 97.632 0.33851 97.6149C0.96018 97.0234 1.57794 96.4241 2.19854 95.822C2.53601 95.4946 2.87432 95.1664 3.21456 94.8382C5.06981 93.0699 6.95405 91.3306 8.86727 89.6203C10.6935 87.9783 12.5477 86.3705 14.4299 84.7969C16.7987 82.8029 19.2161 80.8741 21.6822 79.0106C24.4837 76.8924 27.3473 74.858 30.2855 72.9324C33.3396 70.926 36.4693 69.0449 39.6745 67.289C41.2896 66.4038 42.9264 65.5683 44.5694 64.7453C44.5705 64.6134 44.6024 64.4837 44.6626 64.3664C46.4247 59.3266 48.1847 54.2878 49.9426 49.25C52.5267 41.8063 55.1211 34.3687 57.7259 26.9373C58.1343 25.6651 58.8612 24.5185 59.8375 23.6063C60.8138 22.6941 62.0071 22.0467 63.3041 21.7257C63.8239 21.5829 64.3587 21.5015 64.8974 21.4834C65.236 21.471 65.236 21.4772 65.236 21.8282V22.0238V56.5395V57.0334C65.5979 56.9474 65.9594 56.8603 66.3209 56.7733C67.0171 56.6057 67.713 56.4381 68.4102 56.2786C70.5574 55.7962 72.716 55.3821 74.886 55.0363C76.4161 54.8002 77.9515 54.5932 79.492 54.4151C80.3557 54.3157 81.2239 54.2405 82.0909 54.1654C82.2527 54.1513 82.4144 54.1373 82.5761 54.1232C84.1322 53.9865 85.7007 53.8964 87.2536 53.8436C87.4182 53.8385 87.5828 53.8316 87.7474 53.8246C88.0766 53.8108 88.4059 53.797 88.7351 53.797C90.4837 53.7536 92.2354 53.7256 93.984 53.7536C94.9756 53.7688 95.9623 53.6123 96.9005 53.2908C99.1696 52.5343 101.308 51.431 103.24 50.0203C103.557 49.7878 103.867 49.5245 104.163 49.2729L104.212 49.2314C104.218 49.2065 104.233 49.191 104.249 49.2065C104.265 49.2221 104.255 49.25 104.227 49.25C104.16 49.5171 104.056 49.7734 103.917 50.011C103.14 51.6461 102.05 53.1129 100.708 54.3281C100.691 54.3437 100.671 54.3579 100.651 54.3722C100.587 54.4193 100.521 54.4675 100.516 54.5657C100.519 54.5651 100.522 54.5646 100.525 54.5642C100.505 54.6013 100.482 54.6367 100.456 54.6702C100.407 54.7376 100.347 54.7972 100.28 54.8468C99.7985 55.294 99.2936 55.715 98.7671 56.1078C97.7527 56.9136 96.678 57.6404 95.5525 58.2819C93.083 59.7061 90.5329 60.9859 87.9152 62.1146C86.9061 62.5666 85.8931 63.0098 84.8802 63.4529C83.0188 64.2672 81.1576 65.0814 79.3212 65.9504C76.8757 67.0637 74.5224 68.3692 72.2832 69.8545C70.7026 70.9021 69.2757 72.1649 68.0437 73.6064C67.8739 73.8042 67.7111 74.0072 67.5554 74.2151C66.5331 75.5836 65.8197 77.1615 65.4689 78.8398C65.3299 79.5081 65.2571 80.1885 65.2515 80.871V97.5528V97.9814H65.2422V97.9938H97.9596C97.9441 97.8727 97.944 97.7515 97.944 97.6304V65.8199C97.944 65.5468 97.9284 65.4274 97.9801 65.3762C98.0314 65.3255 98.1488 65.3416 98.413 65.3416H103.382C104.617 65.3137 105.84 65.5867 106.945 66.137C108.051 66.6873 109.006 67.4984 109.728 68.5003C115.256 75.7888 120.787 83.0762 126.319 90.3626C126.523 90.6312 126.726 90.9006 126.928 91.1699C127.415 91.8163 127.901 92.4622 128.4 93.0958C130.404 95.7058 133.353 97.4228 136.612 97.8758C136.875 97.8839 137.136 97.9235 137.389 97.9938ZM97.944 44.6906V33.4286L97.9316 22.0922C97.9316 21.8497 97.9214 21.7419 97.97 21.6947C98.0178 21.6482 98.1228 21.6604 98.3509 21.6604C103.811 21.6729 109.271 21.6729 114.731 21.6604C117.004 21.6213 119.238 22.2486 121.157 23.465C124.161 25.3906 125.993 28.1238 126.493 31.6614C127.065 35.7115 125.832 39.1901 122.878 42.0195C121.143 43.6747 118.932 44.7437 116.558 45.0757C115.97 45.1641 115.376 45.2078 114.781 45.2062H98.3137C98.2588 45.2031 98.2039 45.2031 98.149 45.2062C97.9813 45.2217 97.944 45.1347 97.944 44.9856V44.6906Z" fill="#6C8B9D"/>
</svg>
